<svg width="9" height="13" viewBox="0 0 9 13" fill="none" xmlns="http://www.w3.org/2000/svg">
<path d="M4.14652 6.43478C4.14652 5.98417 4.00787 5.58988 3.73057 5.25192C3.50526 4.98328 3.2063 4.77097 2.83367 4.61499C2.54771 4.48501 2.27474 4.40701 2.01477 4.38102L4.21151 2.06728C4.23751 2.34459 4.3155 2.63489 4.44549 2.93818C4.6188 3.3368 4.84844 3.65743 5.13441 3.90007C5.4897 4.20337 5.91432 4.36369 6.40826 4.38102C6.45159 5.94084 6.46892 7.11504 6.46026 7.90361C6.45159 8.48421 6.43426 8.76584 6.40826 8.74851C5.88832 8.71385 5.44637 8.85683 5.08241 9.17746C4.78778 9.42877 4.55381 9.7754 4.38049 10.2173C4.25051 10.5466 4.17252 10.8716 4.14652 11.1922L2.01477 8.61853C2.27474 8.5752 2.54771 8.47988 2.83367 8.33256C3.2063 8.15058 3.50526 7.92094 3.73057 7.64364C4.00787 7.28835 4.14652 6.8854 4.14652 6.43478ZM2.07976 12.999C1.70714 12.999 1.36051 12.9015 1.03988 12.7066C0.71925 12.5116 0.46578 12.2473 0.279468 11.9136C0.0931559 11.58 0 11.2139 0 10.8153C0 10.4167 0.0931559 10.0505 0.279468 9.7169C0.46578 9.38327 0.71925 9.1168 1.03988 8.91749C1.36051 8.71818 1.70714 8.61853 2.07976 8.61853C2.45238 8.61853 2.79684 8.71818 3.11314 8.91749C3.42944 9.1168 3.68074 9.38327 3.86705 9.7169C4.05337 10.0505 4.14652 10.4167 4.14652 10.8153C4.14652 11.2139 4.05337 11.58 3.86705 11.9136C3.68074 12.2473 3.42944 12.5116 3.11314 12.7066C2.79684 12.9015 2.45238 12.999 2.07976 12.999ZM6.59024 8.74851C6.21762 8.74851 5.87099 8.65102 5.55036 8.45605C5.22973 8.26107 4.97626 7.99677 4.78995 7.66314C4.60364 7.32951 4.51048 6.96339 4.51048 6.56477C4.51048 6.16614 4.60364 5.80002 4.78995 5.46639C4.97626 5.13276 5.22973 4.86846 5.55036 4.67348C5.87099 4.47851 6.21762 4.38102 6.59024 4.38102C6.96286 4.38102 7.30949 4.47851 7.63012 4.67348C7.95075 4.86846 8.20422 5.13276 8.39053 5.46639C8.57684 5.80002 8.67 6.16614 8.67 6.56477C8.67 6.96339 8.57684 7.32951 8.39053 7.66314C8.20422 7.99677 7.95075 8.26107 7.63012 8.45605C7.30949 8.65102 6.96286 8.74851 6.59024 8.74851ZM2.19675 4.38102C1.82412 4.38102 1.4775 4.28136 1.15687 4.08205C0.836237 3.88274 0.582766 3.61627 0.396454 3.28264C0.210142 2.94902 0.116987 2.58289 0.116987 2.18427C0.116987 1.78565 0.210142 1.41953 0.396454 1.0859C0.582766 0.752269 0.836237 0.487967 1.15687 0.292989C1.4775 0.098011 1.82412 0.000522614 2.19675 0.000522614C2.56937 0.000522614 2.916 0.098011 3.23663 0.292989C3.55726 0.487967 3.81073 0.752269 3.99704 1.0859C4.18335 1.41953 4.27651 1.78565 4.27651 2.18427C4.27651 2.58289 4.18335 2.94902 3.99704 3.28264C3.81073 3.61627 3.55726 3.88274 3.23663 4.08205C2.916 4.28136 2.56937 4.38102 2.19675 4.38102Z" fill="white"/>
</svg>
