<svg width="27" height="27" viewBox="0 0 27 27" fill="none" xmlns="http://www.w3.org/2000/svg">
<g clip-path="url(#clip0_421_157)">
<path d="M24.9038 8.05718C24.1703 7.21908 23.1809 6.64628 22.0889 6.42753C21.2055 3.21265 18.2572 0.84375 14.7656 0.84375C13.495 0.843629 12.2446 1.16231 11.1291 1.7706C10.0135 2.37889 9.06836 3.25735 8.38024 4.32553C7.99958 4.22028 7.60168 4.19246 7.21009 4.24374C6.81849 4.29501 6.44117 4.42433 6.10045 4.62404C5.75972 4.82375 5.46253 5.08979 5.22647 5.4064C4.9904 5.72302 4.82026 6.08379 4.72611 6.46734C3.89075 6.66764 3.1201 7.0772 2.48667 7.65748C1.85325 8.23776 1.37789 8.96967 1.10534 9.78432C0.832783 10.599 0.771996 11.4696 0.928698 12.3142C1.0854 13.1588 1.45444 13.9497 2.00107 14.6124L2.6516 14.0751C2.14258 13.4579 1.81955 12.7087 1.72017 11.9149C1.6208 11.121 1.74919 10.3153 2.09036 9.59167C2.43153 8.86803 2.97142 8.25631 3.64705 7.82787C4.32269 7.39942 5.10622 7.17191 5.90625 7.17188C6.03438 7.17188 6.16359 7.17764 6.29028 7.18908L6.36598 6.34872C6.21421 6.33508 6.05951 6.32812 5.90625 6.32812C5.82297 6.32812 5.74017 6.33018 5.65785 6.33428C5.84524 5.90075 6.17277 5.54269 6.58794 5.31752C7.00311 5.09235 7.48186 5.01311 7.94744 5.0925C7.84143 5.30874 7.74423 5.53008 7.65848 5.75732L8.44796 6.05518C9.00588 4.57665 10.0648 3.34069 11.4403 2.56258C12.8157 1.78448 14.4206 1.51354 15.9752 1.79697C17.5299 2.0804 18.9359 2.90022 19.9483 4.11365C20.9607 5.32708 21.5153 6.8572 21.5156 8.4375H22.3594C22.3593 8.07097 22.3328 7.70493 22.2801 7.34222C23.1534 7.60163 23.92 8.13548 24.4662 8.86466C25.0124 9.59385 25.3091 10.4796 25.3125 11.3906C25.3144 12.2592 25.0465 13.1069 24.5457 13.8165L25.2356 14.3023C25.8876 13.3746 26.2093 12.2548 26.1491 11.1224C26.089 9.99004 25.6504 8.91064 24.9038 8.05718Z" fill="#333333"/>
<path d="M4.64062 19.4062C4.87362 19.4062 5.0625 19.2174 5.0625 18.9844C5.0625 18.7514 4.87362 18.5625 4.64062 18.5625C4.40763 18.5625 4.21875 18.7514 4.21875 18.9844C4.21875 19.2174 4.40763 19.4062 4.64062 19.4062Z" fill="#333333"/>
<path d="M5.90625 19.4062C6.13925 19.4062 6.32812 19.2174 6.32812 18.9844C6.32812 18.7514 6.13925 18.5625 5.90625 18.5625C5.67325 18.5625 5.48438 18.7514 5.48438 18.9844C5.48438 19.2174 5.67325 19.4062 5.90625 19.4062Z" fill="#333333"/>
<path d="M7.17188 19.4062C7.40487 19.4062 7.59375 19.2174 7.59375 18.9844C7.59375 18.7514 7.40487 18.5625 7.17188 18.5625C6.93888 18.5625 6.75 18.7514 6.75 18.9844C6.75 19.2174 6.93888 19.4062 7.17188 19.4062Z" fill="#333333"/>
<path d="M10.9688 18.5625H8.4375V19.4062H10.9688V18.5625Z" fill="#333333"/>
<path d="M4.64062 16.0312C4.87362 16.0312 5.0625 15.8424 5.0625 15.6094C5.0625 15.3764 4.87362 15.1875 4.64062 15.1875C4.40763 15.1875 4.21875 15.3764 4.21875 15.6094C4.21875 15.8424 4.40763 16.0312 4.64062 16.0312Z" fill="#333333"/>
<path d="M5.90625 16.0312C6.13925 16.0312 6.32812 15.8424 6.32812 15.6094C6.32812 15.3764 6.13925 15.1875 5.90625 15.1875C5.67325 15.1875 5.48438 15.3764 5.48438 15.6094C5.48438 15.8424 5.67325 16.0312 5.90625 16.0312Z" fill="#333333"/>
<path d="M7.17188 16.0312C7.40487 16.0312 7.59375 15.8424 7.59375 15.6094C7.59375 15.3764 7.40487 15.1875 7.17188 15.1875C6.93888 15.1875 6.75 15.3764 6.75 15.6094C6.75 15.8424 6.93888 16.0312 7.17188 16.0312Z" fill="#333333"/>
<path d="M10.9688 15.1875H8.4375V16.0312H10.9688V15.1875Z" fill="#333333"/>
<path d="M10.9688 10.125H4.64062C4.19323 10.1255 3.7643 10.3035 3.44795 10.6198C3.13159 10.9362 2.95364 11.3651 2.95313 11.8125V12.6562C2.9531 12.8958 3.00421 13.1327 3.10304 13.3509C3.20188 13.5692 3.34616 13.7638 3.52625 13.9219C3.34616 14.0799 3.20188 14.2746 3.10304 14.4928C3.00421 14.7111 2.9531 14.9479 2.95313 15.1875V16.0312C2.9531 16.2708 3.00421 16.5077 3.10304 16.7259C3.20188 16.9442 3.34616 17.1388 3.52625 17.2969C3.34616 17.4549 3.20188 17.6496 3.10304 17.8678C3.00421 18.0861 2.9531 18.3229 2.95313 18.5625V19.4062C2.95364 19.8536 3.13159 20.2826 3.44795 20.5989C3.7643 20.9153 4.19323 21.0932 4.64062 21.0938H10.9688C11.4161 21.0932 11.8451 20.9153 12.1614 20.5989C12.4778 20.2826 12.6557 19.8536 12.6562 19.4062V18.5625C12.6563 18.3229 12.6052 18.0861 12.5063 17.8678C12.4075 17.6496 12.2632 17.4549 12.0831 17.2969C12.2632 17.1388 12.4075 16.9442 12.5063 16.7259C12.6052 16.5077 12.6563 16.2708 12.6562 16.0312V15.1875C12.6563 14.9479 12.6052 14.7111 12.5063 14.4928C12.4075 14.2746 12.2632 14.0799 12.0831 13.9219C12.2632 13.7638 12.4075 13.5692 12.5063 13.3509C12.6052 13.1327 12.6563 12.8958 12.6562 12.6562V11.8125C12.6557 11.3651 12.4778 10.9362 12.1614 10.6198C11.8451 10.3035 11.4161 10.1255 10.9688 10.125ZM11.8125 18.5625V19.4062C11.8122 19.6299 11.7233 19.8444 11.5651 20.0026C11.4069 20.1608 11.1924 20.2497 10.9688 20.25H4.64062C4.41693 20.2497 4.20246 20.1608 4.04429 20.0026C3.88611 19.8444 3.79713 19.6299 3.79688 19.4062V18.5625C3.79713 18.3388 3.88611 18.1243 4.04429 17.9662C4.20246 17.808 4.41693 17.719 4.64062 17.7188H10.9688C11.1924 17.719 11.4069 17.808 11.5651 17.9662C11.7233 18.1243 11.8122 18.3388 11.8125 18.5625ZM11.8125 15.1875V16.0312C11.8122 16.2549 11.7233 16.4694 11.5651 16.6276C11.4069 16.7858 11.1924 16.8747 10.9688 16.875H4.64062C4.41693 16.8747 4.20246 16.7858 4.04429 16.6276C3.88611 16.4694 3.79713 16.2549 3.79688 16.0312V15.1875C3.79713 14.9638 3.88611 14.7493 4.04429 14.5912C4.20246 14.433 4.41693 14.344 4.64062 14.3438H10.9688C11.1924 14.344 11.4069 14.433 11.5651 14.5912C11.7233 14.7493 11.8122 14.9638 11.8125 15.1875ZM4.64062 13.5C4.41693 13.4997 4.20246 13.4108 4.04429 13.2526C3.88611 13.0944 3.79713 12.8799 3.79688 12.6562V11.8125C3.79713 11.5888 3.88611 11.3743 4.04429 11.2162C4.20246 11.058 4.41693 10.969 4.64062 10.9688H10.9688C11.1924 10.969 11.4069 11.058 11.5651 11.2162C11.7233 11.3743 11.8122 11.5888 11.8125 11.8125V12.6562C11.8122 12.8799 11.7233 13.0944 11.5651 13.2526C11.4069 13.4108 11.1924 13.4997 10.9688 13.5H4.64062Z" fill="#333333"/>
<path d="M4.64062 12.6562C4.87362 12.6562 5.0625 12.4674 5.0625 12.2344C5.0625 12.0014 4.87362 11.8125 4.64062 11.8125C4.40763 11.8125 4.21875 12.0014 4.21875 12.2344C4.21875 12.4674 4.40763 12.6562 4.64062 12.6562Z" fill="#333333"/>
<path d="M5.90625 12.6562C6.13925 12.6562 6.32812 12.4674 6.32812 12.2344C6.32812 12.0014 6.13925 11.8125 5.90625 11.8125C5.67325 11.8125 5.48438 12.0014 5.48438 12.2344C5.48438 12.4674 5.67325 12.6562 5.90625 12.6562Z" fill="#333333"/>
<path d="M7.17188 12.6562C7.40487 12.6562 7.59375 12.4674 7.59375 12.2344C7.59375 12.0014 7.40487 11.8125 7.17188 11.8125C6.93888 11.8125 6.75 12.0014 6.75 12.2344C6.75 12.4674 6.93888 12.6562 7.17188 12.6562Z" fill="#333333"/>
<path d="M10.9688 11.8125H8.4375V12.6562H10.9688V11.8125Z" fill="#333333"/>
<path d="M22.3594 12.2344H18.9844C18.537 12.2349 18.1081 12.4128 17.7917 12.7292C17.4753 13.0456 17.2974 13.4745 17.2969 13.9219V16.4531C17.2974 16.9005 17.4753 17.3294 17.7917 17.6458C18.1081 17.9622 18.537 18.1401 18.9844 18.1406H22.3594C22.8068 18.1401 23.2357 17.9622 23.5521 17.6458C23.8684 17.3294 24.0464 16.9005 24.0469 16.4531V13.9219C24.0464 13.4745 23.8684 13.0456 23.5521 12.7292C23.2357 12.4128 22.8068 12.2349 22.3594 12.2344ZM23.2031 13.9219V14.1489C22.9469 14 22.6557 13.9216 22.3594 13.9219H21.4541C21.2973 13.9224 21.1435 13.879 21.0101 13.7966C20.8767 13.7142 20.7691 13.596 20.6994 13.4555L20.5553 13.1672C20.5401 13.1368 20.5236 13.1073 20.5068 13.0781H22.3594C22.5831 13.0784 22.7975 13.1674 22.9557 13.3255C23.1139 13.4837 23.2029 13.6982 23.2031 13.9219ZM23.2031 16.4531C23.2029 16.6768 23.1139 16.8913 22.9557 17.0495C22.7975 17.2076 22.5831 17.2966 22.3594 17.2969H18.9844C18.7607 17.2966 18.5462 17.2076 18.388 17.0495C18.2299 16.8913 18.1409 16.6768 18.1406 16.4531V13.9219C18.1409 13.6982 18.2299 13.4837 18.388 13.3255C18.5462 13.1674 18.7607 13.0784 18.9844 13.0781H19.0459C19.2027 13.0776 19.3565 13.121 19.4899 13.2034C19.6233 13.2858 19.7309 13.404 19.8006 13.5445L19.9447 13.8328C20.084 14.1138 20.2993 14.3501 20.5661 14.515C20.8328 14.6799 21.1405 14.7667 21.4541 14.7656H22.3594C22.5831 14.7659 22.7975 14.8549 22.9557 15.013C23.1139 15.1712 23.2029 15.3857 23.2031 15.6094V16.4531Z" fill="#333333"/>
<path d="M22.3594 20.25H18.9844C18.537 20.2505 18.1081 20.4285 17.7917 20.7448C17.4753 21.0612 17.2974 21.4901 17.2969 21.9375V24.4688C17.2974 24.9161 17.4753 25.3451 17.7917 25.6614C18.1081 25.9778 18.537 26.1557 18.9844 26.1562H22.3594C22.8068 26.1557 23.2357 25.9778 23.5521 25.6614C23.8684 25.3451 24.0464 24.9161 24.0469 24.4688V21.9375C24.0464 21.4901 23.8684 21.0612 23.5521 20.7448C23.2357 20.4285 22.8068 20.2505 22.3594 20.25ZM23.2031 21.9375V22.1645C22.9469 22.0156 22.6557 21.9373 22.3594 21.9375H21.4541C21.2973 21.938 21.1435 21.8946 21.0101 21.8122C20.8767 21.7298 20.7691 21.6116 20.6994 21.4711L20.5553 21.1828C20.5401 21.1524 20.5236 21.1229 20.5068 21.0938H22.3594C22.5831 21.094 22.7975 21.183 22.9557 21.3412C23.1139 21.4993 23.2029 21.7138 23.2031 21.9375ZM23.2031 24.4688C23.2029 24.6924 23.1139 24.9069 22.9557 25.0651C22.7975 25.2233 22.5831 25.3122 22.3594 25.3125H18.9844C18.7607 25.3122 18.5462 25.2233 18.388 25.0651C18.2299 24.9069 18.1409 24.6924 18.1406 24.4688V21.9375C18.1409 21.7138 18.2299 21.4993 18.388 21.3412C18.5462 21.183 18.7607 21.094 18.9844 21.0938H19.0459C19.2027 21.0932 19.3565 21.1366 19.4899 21.219C19.6233 21.3015 19.7309 21.4196 19.8006 21.5601L19.9447 21.8485C20.084 22.1294 20.2993 22.3658 20.5661 22.5306C20.8328 22.6955 21.1405 22.7823 21.4541 22.7812H22.3594C22.5831 22.7815 22.7975 22.8705 22.9557 23.0287C23.1139 23.1868 23.2029 23.4013 23.2031 23.625V24.4688Z" fill="#333333"/>
<path d="M13.0781 14.7656V15.6094H14.3438V23.625C14.3438 23.7369 14.3882 23.8442 14.4673 23.9233C14.5464 24.0024 14.6537 24.0469 14.7656 24.0469H16.4531V23.2031H15.1875V15.6094H16.4531V14.7656H13.0781Z" fill="#333333"/>
</g>
<defs>
<clipPath id="clip0_421_157">
<rect width="27" height="27" fill="white"/>
</clipPath>
</defs>
</svg>
