<svg width="30" height="27" viewBox="0 0 30 27" fill="none" xmlns="http://www.w3.org/2000/svg">
<path d="M25.7644 13.5539C25.8827 13.1388 25.9426 12.705 25.9426 12.2584C25.9426 9.57014 23.6935 7.38294 20.929 7.38294C20.5283 7.38294 20.1285 7.43023 19.7367 7.52391C18.7949 5.78733 16.9367 4.68555 14.8938 4.68555C12.2173 4.68555 9.93544 6.59673 9.49637 9.11724C9.38929 9.10997 9.27988 9.10633 9.16859 9.10633C6.74365 9.10633 4.75871 10.9752 4.65771 13.3098C2.42448 14.02 0.894043 16.049 0.894043 18.3617C0.894043 21.2974 3.34985 23.6855 6.36863 23.6855H23.4195C26.4382 23.6855 28.894 21.2974 28.894 18.3617C28.894 16.3064 27.6535 14.4261 25.7644 13.5539ZM23.4195 22.7766H6.36817C3.86514 22.7766 1.82876 20.7963 1.82876 18.3621C1.82876 16.3455 3.23201 14.5893 5.24127 14.0914C5.46478 14.0359 5.613 13.8304 5.59103 13.6076C5.58728 13.5708 5.58822 13.5344 5.58822 13.498C5.58822 11.5782 7.19441 10.0162 9.16812 10.0162C9.39818 10.0162 9.61421 10.0353 9.81013 10.0735C9.93871 10.099 10.0771 10.0685 10.1842 9.99031C10.2913 9.91164 10.3577 9.7925 10.3684 9.66291C10.5494 7.38203 12.5371 5.59544 14.8938 5.59544C16.7029 5.59544 18.3372 6.6372 19.0582 8.24873C19.1545 8.46518 19.4056 8.57249 19.6347 8.49882C20.056 8.36195 20.4918 8.29238 20.929 8.29238C23.1782 8.29238 25.0074 10.0717 25.0074 12.2584C25.0074 12.7455 24.9204 13.2124 24.7498 13.6458C24.7049 13.759 24.7086 13.8845 24.7596 13.995C24.8105 14.1055 24.905 14.1915 25.0214 14.2342C26.7786 14.8781 27.9589 16.5364 27.9589 18.3617C27.9589 20.7963 25.9225 22.7766 23.4195 22.7766Z" fill="black"/>
<path d="M21.5087 9.69653C21.239 9.64417 20.9698 9.78406 20.9072 10.0098C20.8445 10.2356 21.0119 10.4605 21.2816 10.5128C21.2911 10.5145 22.1989 10.7068 22.641 11.3568C22.9538 11.8175 22.9728 12.4169 22.6966 13.139C22.6119 13.3593 22.7578 13.5951 23.021 13.6654C23.0721 13.6788 23.1232 13.6855 23.1738 13.6855C23.3864 13.6855 23.5829 13.572 23.651 13.394C24.0164 12.4403 23.9693 11.6156 23.5127 10.9434C22.849 9.96709 21.5628 9.70742 21.5087 9.69653Z" fill="black"/>
<path d="M13.7575 14.9759C13.749 14.9531 13.7342 14.9384 13.7238 14.9181C13.7085 14.8887 13.6949 14.8593 13.6749 14.834C13.6544 14.8082 13.6307 14.7904 13.6071 14.7712C13.5914 14.7585 13.5798 14.7403 13.5626 14.7296C13.5574 14.7266 13.5517 14.7276 13.5465 14.7246C13.5205 14.7109 13.4928 14.7063 13.4647 14.6998C13.4407 14.6942 13.4178 14.6851 13.3938 14.6856C13.3705 14.6856 13.348 14.6942 13.3244 14.6998C13.2959 14.7063 13.2678 14.7109 13.241 14.7251C13.2358 14.7276 13.2301 14.7271 13.2249 14.7302C13.2073 14.7403 13.1961 14.7585 13.1804 14.7717C13.1568 14.7909 13.1331 14.8087 13.1127 14.8345C13.0926 14.8599 13.0786 14.8887 13.0637 14.9186C13.0533 14.9389 13.0385 14.9536 13.0301 14.9764L11.9313 17.9656C11.8383 18.2194 11.9253 18.5209 12.1262 18.6384C12.1807 18.6703 12.2381 18.6855 12.2946 18.6855C12.4462 18.6855 12.5906 18.5771 12.6587 18.3922L12.8969 17.7442H13.891L14.1292 18.3922C14.1974 18.5766 14.3417 18.6855 14.4933 18.6855C14.5498 18.6855 14.6072 18.6703 14.6617 18.6384C14.8626 18.5209 14.95 18.2194 14.8566 17.9656L13.7575 14.9759ZM13.2694 16.7309L13.3938 16.3925L13.5181 16.7309H13.2694Z" fill="black"/>
<path d="M16.894 15.1919C16.894 14.9124 16.7792 14.6855 16.637 14.6855H16.151C16.0089 14.6855 15.894 14.9124 15.894 15.1919C15.894 15.4617 16.002 15.6774 16.1369 15.6926V17.6785C16.0017 17.6936 15.894 17.9093 15.894 18.1792C15.894 18.4587 16.0089 18.6855 16.151 18.6855H16.637C16.7792 18.6855 16.894 18.4587 16.894 18.1792C16.894 17.9093 16.7861 17.6936 16.6512 17.6785V15.6926C16.7864 15.6774 16.894 15.4617 16.894 15.1919Z" fill="black"/>
<path d="M19.4486 14.9903C19.6949 14.9903 19.894 14.8001 19.894 14.5657C19.894 14.3313 19.6949 14.1411 19.4486 14.1411H18.5906V13.6358C18.5906 13.1119 18.1433 12.6855 17.5936 12.6855H11.1945C10.6447 12.6855 10.1975 13.1119 10.1975 13.6358V14.1411H9.33951C9.09317 14.1411 8.89404 14.3313 8.89404 14.5657C8.89404 14.8001 9.09317 14.9903 9.33951 14.9903H10.1975V16.2612H9.33951C9.09317 16.2612 8.89404 16.4514 8.89404 16.6858C8.89404 16.9201 9.09317 17.1104 9.33951 17.1104H10.1975V18.3808H9.33951C9.09317 18.3808 8.89404 18.571 8.89404 18.8054C8.89404 19.0398 9.09317 19.23 9.33951 19.23H10.1975V19.7353C10.1975 20.2592 10.6447 20.6855 11.1945 20.6855H17.5936C18.1433 20.6855 18.5906 20.2592 18.5906 19.7353V19.23H19.4486C19.6949 19.23 19.894 19.0398 19.894 18.8054C19.894 18.571 19.6949 18.3808 19.4486 18.3808H18.5906V17.1104H19.4486C19.6949 17.1104 19.894 16.9201 19.894 16.6858C19.894 16.4514 19.6949 16.2612 19.4486 16.2612H18.5906V14.9903H19.4486ZM17.6997 19.7353C17.6997 19.7901 17.6511 19.8363 17.5936 19.8363H11.1945C11.137 19.8363 11.0884 19.7901 11.0884 19.7353V13.6358C11.0884 13.581 11.137 13.5348 11.1945 13.5348H17.5936C17.6511 13.5348 17.6997 13.581 17.6997 13.6358V19.7353Z" fill="black"/>
</svg>
