<svg width="27" height="27" viewBox="0 0 27 27" fill="none" xmlns="http://www.w3.org/2000/svg">
<g clip-path="url(#clip0_2_31)">
<path d="M23.1408 21.4596L22.5108 20.8188L22.1418 21.1788L22.2678 21.6774L23.1408 21.4596ZM24.3 26.1L24.0822 26.973C24.2329 27.0105 24.3907 27.0084 24.5403 26.9669C24.6899 26.9254 24.8263 26.8459 24.9361 26.7361C25.0459 26.6263 25.1254 26.4899 25.1669 26.3403C25.2084 26.1907 25.2105 26.0329 25.173 25.8822L24.3 26.1ZM17.1 24.3L16.4628 23.6628L15.3396 24.7878L16.8822 25.173L17.1 24.3ZM17.145 24.255L17.7804 24.8922C17.9117 24.7614 17.9995 24.5931 18.0316 24.4106C18.0637 24.228 18.0387 24.0399 17.9599 23.8721C17.8811 23.7043 17.7524 23.5649 17.5914 23.473C17.4304 23.3811 17.245 23.3411 17.0604 23.3586L17.145 24.255ZM12.6 0V4.5H14.4V0H12.6ZM16.2 3.6H10.8V5.4H16.2V3.6ZM27 14.4C27 11.5357 25.8621 8.78864 23.8368 6.76325C21.8114 4.73785 19.0643 3.6 16.2 3.6V5.4C17.3819 5.4 18.5522 5.63279 19.6441 6.08508C20.7361 6.53738 21.7282 7.20031 22.564 8.03604C23.3997 8.87177 24.0626 9.86392 24.5149 10.9558C24.9672 12.0478 25.2 13.2181 25.2 14.4H27ZM23.7708 22.1022C24.7953 21.098 25.6087 19.8992 26.1632 18.5762C26.7178 17.2532 27.0023 15.8345 27 14.4H25.2C25.2023 15.5956 24.9654 16.7778 24.5033 17.8804C24.0411 18.9831 23.3649 19.9821 22.5108 20.8188L23.7708 22.1022ZM25.1748 25.8822L24.012 21.24L22.266 21.6756L23.4252 26.316L25.1748 25.8822ZM16.8822 25.173L24.0822 26.973L24.5178 25.227L17.3178 23.427L16.8822 25.173ZM16.5078 23.6196L16.4628 23.6628L17.7372 24.9354L17.7804 24.8922L16.5078 23.6196ZM16.2 25.2C16.548 25.2 16.8912 25.1838 17.2296 25.1514L17.0604 23.3586C16.7744 23.3861 16.4873 23.3999 16.2 23.4V25.2ZM10.8 25.2H16.2V23.4H10.8V25.2ZM0 14.4C0 17.2643 1.13785 20.0114 3.16325 22.0368C5.18864 24.0621 7.93566 25.2 10.8 25.2V23.4C9.6181 23.4 8.44778 23.1672 7.35585 22.7149C6.26392 22.2626 5.27177 21.5997 4.43604 20.764C2.74821 19.0761 1.8 16.7869 1.8 14.4H0ZM10.8 3.6C7.93566 3.6 5.18864 4.73785 3.16325 6.76325C1.13785 8.78864 0 11.5357 0 14.4H1.8C1.8 12.0131 2.74821 9.72387 4.43604 8.03604C6.12387 6.34821 8.41305 5.4 10.8 5.4V3.6ZM13.5 14.4C12.7839 14.4 12.0972 14.1155 11.5908 13.6092C11.0845 13.1028 10.8 12.4161 10.8 11.7H9C9 12.8935 9.47411 14.0381 10.318 14.882C11.1619 15.7259 12.3065 16.2 13.5 16.2V14.4ZM16.2 11.7C16.2 12.4161 15.9155 13.1028 15.4092 13.6092C14.9028 14.1155 14.2161 14.4 13.5 14.4V16.2C14.6935 16.2 15.8381 15.7259 16.682 14.882C17.5259 14.0381 18 12.8935 18 11.7H16.2ZM13.5 9C14.2161 9 14.9028 9.28446 15.4092 9.79081C15.9155 10.2972 16.2 10.9839 16.2 11.7H18C18 10.5065 17.5259 9.36193 16.682 8.51802C15.8381 7.67411 14.6935 7.2 13.5 7.2V9ZM13.5 7.2C12.3065 7.2 11.1619 7.67411 10.318 8.51802C9.47411 9.36193 9 10.5065 9 11.7H10.8C10.8 10.9839 11.0845 10.2972 11.5908 9.79081C12.0972 9.28446 12.7839 9 13.5 9V7.2ZM13.5 21.6C15.4152 21.6 17.1756 20.934 18.5634 19.8234L17.4366 18.4194C16.3566 19.2834 14.9904 19.8 13.5 19.8V21.6ZM8.4366 19.8234C9.8226 20.934 11.5866 21.6 13.5 21.6V19.8C12.0686 19.8031 10.6793 19.3159 9.5634 18.4194L8.4366 19.8234Z" fill="#333333"/>
</g>
<defs>
<clipPath id="clip0_2_31">
<rect width="27" height="27" fill="white"/>
</clipPath>
</defs>
</svg>
