<svg width="27" height="27" viewBox="0 0 27 27" fill="none" xmlns="http://www.w3.org/2000/svg">
<path fill-rule="evenodd" clip-rule="evenodd" d="M26.6557 21.3995H0.343975C0.154629 21.3995 0.0012207 21.246 0.0012207 21.0567V19.7041C0.0012207 19.5147 0.154628 19.3613 0.343975 19.3613H26.6557C26.845 19.3613 26.9984 19.5147 26.9984 19.7041V21.0567C26.9984 21.246 26.845 21.3995 26.6557 21.3995ZM0.686695 20.714H26.313V20.0468H0.686695V20.714Z" fill="#333333"/>
<path fill-rule="evenodd" clip-rule="evenodd" d="M7.44528 12.3846C6.26093 12.3846 5.06201 11.4684 5.06201 9.7174V9.12693C5.06201 8.93765 5.21542 8.78418 5.40477 8.78418C5.59405 8.78418 5.74746 8.93765 5.74746 9.12693V9.7174C5.74746 11.0789 6.6276 11.6991 7.44528 11.6991C7.88775 11.6991 8.29921 11.527 8.60397 11.2143C8.95787 10.8512 9.14497 10.3206 9.14497 9.68002V9.127C9.14497 8.93765 9.29838 8.78424 9.48773 8.78424C9.67701 8.78424 9.83042 8.93765 9.83042 9.127V9.68002C9.83042 10.5031 9.57605 11.199 9.09483 11.6928C8.66002 12.1388 8.07417 12.3846 7.44528 12.3846Z" fill="#333333"/>
<path fill-rule="evenodd" clip-rule="evenodd" d="M9.48777 9.46946C9.37896 9.46946 9.27507 9.41757 9.20992 9.32739L8.68485 8.60015L7.10257 8.1763L6.02317 8.29227L5.73211 9.22848C5.69792 9.33866 5.6106 9.42418 5.49979 9.45613C5.38892 9.48808 5.26952 9.46211 5.18183 9.38705C4.73294 9.00251 4.41772 7.82682 4.70354 7.05374C4.88703 6.55764 5.28248 6.28439 5.81701 6.28439C5.88888 6.28439 5.96387 6.2895 6.04117 6.29953C6.17402 6.16101 6.4221 5.93896 6.88538 5.87394C7.1907 5.83127 7.55033 5.8626 7.95905 5.96718C7.99075 5.97527 8.02588 5.98462 8.06381 5.99465C8.32005 6.06222 8.70734 6.16443 9.0068 6.16443C9.2025 6.16443 9.25164 6.11978 9.25201 6.1194C9.32869 6.01346 9.45892 5.96039 9.58767 5.98262C9.71654 6.00474 9.82148 6.09847 9.8583 6.22385C9.87449 6.27891 10.2496 7.59051 9.81912 9.21465C9.78517 9.3427 9.68053 9.43974 9.55024 9.46385C9.52931 9.46765 9.50845 9.46946 9.48777 9.46946ZM7.12941 7.48593C7.15931 7.48593 7.18914 7.48986 7.21811 7.49758L8.98002 7.96951C9.05619 7.98994 9.12309 8.03597 9.16918 8.09994L9.29998 8.28112C9.37073 7.67634 9.33019 7.1613 9.28129 6.82671C9.19715 6.84216 9.10559 6.84988 9.00674 6.84988C8.61839 6.84988 8.17935 6.73403 7.88885 6.65736C7.8526 6.64783 7.81915 6.63898 7.78882 6.6312C7.46924 6.54936 7.19481 6.52282 6.98049 6.55272C6.7045 6.59152 6.59208 6.71285 6.5017 6.81045C6.42952 6.88837 6.32039 7.00609 6.14026 7.00609C6.11398 7.00609 6.08757 7.00335 6.06185 6.99793C5.97315 6.97931 5.89075 6.9699 5.81688 6.9699C5.57042 6.9699 5.42972 7.06607 5.34632 7.29148C5.24841 7.55625 5.2651 7.90156 5.33243 8.20439L5.43526 7.87378C5.47581 7.7433 5.59004 7.64937 5.72595 7.63473L7.09266 7.48793C7.10499 7.48662 7.11721 7.48593 7.12941 7.48593Z" fill="#333333"/>
<path fill-rule="evenodd" clip-rule="evenodd" d="M11.4318 14.8109C11.2426 14.8109 11.0891 14.6574 11.0891 14.4682V14.3373C11.0891 13.3979 10.3249 12.6337 9.38554 12.6337H8.77097C8.71342 13.3142 8.14121 13.8504 7.44611 13.8504C6.75089 13.8504 6.17861 13.3142 6.12119 12.6337H5.50656C4.56718 12.6337 3.80294 13.398 3.80294 14.3373V14.4682C3.80294 14.6574 3.64947 14.8109 3.46019 14.8109C3.2709 14.8109 3.11743 14.6574 3.11743 14.4682V14.3373C3.11743 13.02 4.18923 11.9482 5.50656 11.9482H6.45914C6.64849 11.9482 6.80189 12.1016 6.80189 12.291V12.5208C6.80189 12.876 7.09083 13.1649 7.44605 13.1649C7.80119 13.1649 8.09026 12.876 8.09026 12.5208V12.291C8.09026 12.1017 8.24367 11.9482 8.43295 11.9482H9.38553C10.7029 11.9482 11.7746 13.02 11.7746 14.3373V14.4682C11.7746 14.6574 11.6211 14.8109 11.4318 14.8109Z" fill="#333333"/>
<path fill-rule="evenodd" clip-rule="evenodd" d="M7.44617 13.8499C6.71295 13.8499 6.11646 13.2535 6.11646 12.5203V11.7805C6.11646 11.5912 6.26993 11.4378 6.45921 11.4378C6.64855 11.4378 6.80196 11.5912 6.80196 11.7805V12.5202C6.80196 12.8754 7.0909 13.1644 7.44611 13.1644C7.80126 13.1644 8.09033 12.8755 8.09033 12.5203V11.7783C8.09033 11.589 8.24373 11.4355 8.43302 11.4355C8.62236 11.4355 8.77577 11.589 8.77577 11.7783V12.5203C8.77577 13.2535 8.17933 13.8499 7.44617 13.8499Z" fill="#333333"/>
<path fill-rule="evenodd" clip-rule="evenodd" d="M7.44627 14.81C7.25692 14.81 7.10352 14.6566 7.10352 14.4673V13.5068C7.10352 13.3175 7.25692 13.1641 7.44627 13.1641C7.63555 13.1641 7.78896 13.3175 7.78896 13.5068V14.4673C7.78896 14.6566 7.63555 14.81 7.44627 14.81Z" fill="#333333"/>
<path fill-rule="evenodd" clip-rule="evenodd" d="M12.6175 20.0472H2.275C2.09182 20.0472 1.94109 19.9032 1.93268 19.7202L1.73599 15.4554C1.66847 15.0641 1.74116 14.7168 1.94165 14.4755C2.07444 14.3157 2.32769 14.125 2.7797 14.125H12.1129C12.5662 14.125 12.8184 14.3139 12.9501 14.4725C13.1544 14.7184 13.2244 15.0644 13.1531 15.4744L12.96 19.7201C12.9516 19.903 12.8008 20.0472 12.6175 20.0472ZM2.60238 19.3617H12.2901L12.4694 15.4205C12.4702 15.4046 12.4719 15.3888 12.4749 15.3733C12.5136 15.1655 12.4946 14.9969 12.4228 14.9105C12.3677 14.8441 12.2634 14.8104 12.113 14.8104H2.77961C2.63025 14.8104 2.52568 14.8451 2.46881 14.9136C2.39781 14.9991 2.37787 15.1597 2.41412 15.3543C2.41705 15.3698 2.4188 15.3856 2.41961 15.4013L2.60238 19.3617Z" fill="#333333"/>
<path fill-rule="evenodd" clip-rule="evenodd" d="M7.44539 18.7595C6.52251 18.7595 5.77173 18.0088 5.77173 17.0858C5.77173 16.163 6.52251 15.4121 7.44539 15.4121C8.36826 15.4121 9.11917 16.163 9.11917 17.0858C9.11917 18.0088 8.36826 18.7595 7.44539 18.7595ZM7.44539 16.0976C6.90046 16.0976 6.45718 16.541 6.45718 17.0858C6.45718 17.6308 6.90046 18.0741 7.44539 18.0741C7.99025 18.0741 8.43366 17.6308 8.43366 17.0858C8.43366 16.541 7.99032 16.0976 7.44539 16.0976Z" fill="#333333"/>
<path fill-rule="evenodd" clip-rule="evenodd" d="M19.5542 12.3846C18.3699 12.3846 17.1709 11.4684 17.1709 9.7174V9.12693C17.1709 8.93765 17.3243 8.78418 17.5137 8.78418C17.7029 8.78418 17.8564 8.93765 17.8564 9.12693V9.7174C17.8564 11.0789 18.7365 11.6991 19.5542 11.6991C19.9967 11.6991 20.4082 11.527 20.7129 11.2143C21.0668 10.8512 21.2539 10.3206 21.2539 9.68002V9.127C21.2539 8.93765 21.4073 8.78424 21.5967 8.78424C21.786 8.78424 21.9394 8.93765 21.9394 9.127V9.68002C21.9394 10.5031 21.6851 11.199 21.2038 11.6928C20.7689 12.1388 20.1831 12.3846 19.5542 12.3846Z" fill="#333333"/>
<path fill-rule="evenodd" clip-rule="evenodd" d="M21.5967 9.46986C21.4879 9.46986 21.384 9.41798 21.3188 9.32772L20.7938 8.60049L19.2115 8.1767L18.1321 8.29261L17.8409 9.22888C17.8068 9.339 17.7194 9.42458 17.6086 9.45641C17.4976 9.4883 17.3784 9.46245 17.2907 9.38733C16.8418 9.00272 16.5266 7.82703 16.8124 7.05408C16.9959 6.55798 17.3914 6.28474 17.9259 6.28474C17.9978 6.28474 18.0727 6.28978 18.15 6.29981C18.3114 6.13095 18.6232 5.85547 19.2738 5.85547C19.5107 5.85547 19.7779 5.89315 20.068 5.96752C20.0997 5.97562 20.1348 5.9849 20.1727 5.99492C20.4289 6.06257 20.8162 6.16478 21.1157 6.16478C21.3115 6.16478 21.3607 6.12012 21.361 6.11968C21.4376 6.0138 21.5675 5.96092 21.6966 5.98297C21.8255 6.00508 21.9304 6.09882 21.9673 6.22426C21.9835 6.27932 22.3585 7.59079 21.928 9.21499C21.894 9.34305 21.7894 9.44009 21.6591 9.46419C21.6383 9.46806 21.6173 9.46986 21.5967 9.46986ZM19.2384 7.48633C19.2683 7.48633 19.2981 7.49026 19.3271 7.49798L21.089 7.96991C21.1652 7.99034 21.232 8.03637 21.2782 8.10034L21.4089 8.28146C21.4797 7.67674 21.4391 7.16164 21.3903 6.82705C21.3061 6.8425 21.2145 6.85022 21.1157 6.85022C20.7274 6.85022 20.2883 6.73437 19.9978 6.65776C19.9616 6.64817 19.9281 6.63938 19.8978 6.63166C19.6633 6.57149 19.4534 6.54104 19.2739 6.54104C18.8606 6.54104 18.7162 6.69694 18.6107 6.81079C18.5386 6.88871 18.4295 7.00649 18.2493 7.00649C18.2231 7.00649 18.1967 7.00375 18.1711 6.9984C18.0822 6.97971 17.9998 6.97037 17.926 6.97037C17.6795 6.97037 17.5388 7.06653 17.4555 7.29188C17.3576 7.55665 17.3743 7.90202 17.4416 8.20486L17.5444 7.87419C17.585 7.7437 17.6992 7.64977 17.835 7.63514L19.2018 7.48833C19.214 7.48702 19.2262 7.48633 19.2384 7.48633Z" fill="#333333"/>
<path fill-rule="evenodd" clip-rule="evenodd" d="M23.541 14.8109C23.3517 14.8109 23.1982 14.6574 23.1982 14.4682V14.3373C23.1982 13.3979 22.434 12.6337 21.4946 12.6337H20.88C20.8225 13.3142 20.2503 13.8504 19.5552 13.8504C18.86 13.8504 18.2877 13.3142 18.2303 12.6337H17.6156C16.6763 12.6337 15.9121 13.398 15.9121 14.3373V14.4682C15.9121 14.6574 15.7586 14.8109 15.5693 14.8109C15.38 14.8109 15.2266 14.6574 15.2266 14.4682V14.3373C15.2266 13.02 16.2983 11.9482 17.6156 11.9482H18.5682C18.7576 11.9482 18.911 12.1016 18.911 12.291V12.5208C18.911 12.876 19.1999 13.1649 19.5552 13.1649C19.9104 13.1649 20.1993 12.876 20.1993 12.5208V12.291C20.1993 12.1017 20.3528 11.9482 20.5421 11.9482H21.4946C22.8119 11.9482 23.8837 13.02 23.8837 14.3373V14.4682C23.8837 14.6574 23.7303 14.8109 23.541 14.8109Z" fill="#333333"/>
<path fill-rule="evenodd" clip-rule="evenodd" d="M19.5552 13.8499C18.8222 13.8499 18.2256 13.2535 18.2256 12.5203V11.7805C18.2256 11.5912 18.3791 11.4378 18.5683 11.4378C18.7576 11.4378 18.9111 11.5912 18.9111 11.7805V12.5202C18.9111 12.8754 19.2 13.1644 19.5552 13.1644C19.9104 13.1644 20.1994 12.8755 20.1994 12.5203V11.7783C20.1994 11.589 20.3529 11.4355 20.5421 11.4355C20.7315 11.4355 20.8849 11.589 20.8849 11.7783V12.5203C20.8849 13.2535 20.2884 13.8499 19.5552 13.8499Z" fill="#333333"/>
<path fill-rule="evenodd" clip-rule="evenodd" d="M19.5552 14.81C19.3658 14.81 19.2124 14.6566 19.2124 14.4673V13.5068C19.2124 13.3175 19.3658 13.1641 19.5552 13.1641C19.7444 13.1641 19.8978 13.3175 19.8978 13.5068V14.4673C19.8978 14.6566 19.7444 14.81 19.5552 14.81Z" fill="#333333"/>
<path fill-rule="evenodd" clip-rule="evenodd" d="M24.7264 20.0472H14.384C14.2008 20.0472 14.0501 19.9032 14.0416 19.7202L13.8448 15.4554C13.7774 15.0641 13.8501 14.7168 14.0505 14.4755C14.1834 14.3157 14.4365 14.125 14.8885 14.125H24.2218C24.6752 14.125 24.9273 14.314 25.059 14.4725C25.2633 14.7185 25.3333 15.0645 25.262 15.4744L25.0688 19.7201C25.0605 19.903 24.9096 20.0472 24.7264 20.0472ZM14.7113 19.3617H24.399L24.5783 15.4205C24.579 15.4046 24.5808 15.3888 24.5838 15.3732C24.6224 15.1655 24.6035 14.9969 24.5318 14.9105C24.4766 14.8441 24.3724 14.8105 24.2219 14.8105H14.8885C14.7392 14.8105 14.6346 14.8452 14.5777 14.9136C14.5067 14.9992 14.4867 15.1598 14.5231 15.3544C14.526 15.3699 14.5278 15.3856 14.5285 15.4014L14.7113 19.3617Z" fill="#333333"/>
<path fill-rule="evenodd" clip-rule="evenodd" d="M19.5542 18.7595C18.6312 18.7595 17.8804 18.0088 17.8804 17.0858C17.8804 16.163 18.6312 15.4121 19.5542 15.4121C20.477 15.4121 21.2278 16.163 21.2278 17.0858C21.2278 18.0088 20.477 18.7595 19.5542 18.7595ZM19.5542 16.0976C19.0092 16.0976 18.5659 16.541 18.5659 17.0858C18.5659 17.6308 19.0092 18.0741 19.5542 18.0741C20.0991 18.0741 20.5424 17.6308 20.5424 17.0858C20.5424 16.541 20.0991 16.0976 19.5542 16.0976Z" fill="#333333"/>
<path fill-rule="evenodd" clip-rule="evenodd" d="M19.3503 4.90222C19.161 4.90222 19.0076 4.74875 19.0076 4.55947V2.67965H9.64231C9.45303 2.67965 9.29956 2.52618 9.29956 2.33689C9.29956 2.14761 9.45303 1.99414 9.64231 1.99414H19.3503C19.5396 1.99414 19.6931 2.14761 19.6931 2.33689V4.55947C19.693 4.74875 19.5396 4.90222 19.3503 4.90222Z" fill="#333333"/>
<path fill-rule="evenodd" clip-rule="evenodd" d="M19.3504 4.90239C19.2627 4.90239 19.1749 4.86894 19.108 4.80199L18.436 4.13006C18.3022 3.99614 18.3022 3.77921 18.436 3.64536C18.5699 3.51144 18.7869 3.51144 18.9208 3.64536L19.3503 4.07487L19.7798 3.64536C19.9137 3.51144 20.1307 3.51144 20.2646 3.64536C20.3984 3.77921 20.3984 3.99621 20.2646 4.13006L19.5927 4.80199C19.5258 4.86894 19.4381 4.90239 19.3504 4.90239Z" fill="#333333"/>
<path fill-rule="evenodd" clip-rule="evenodd" d="M20.0223 25.0067H10.3142C10.1249 25.0067 9.97144 24.8532 9.97144 24.664V22.4413C9.97144 22.252 10.1249 22.0986 10.3142 22.0986C10.5035 22.0986 10.6569 22.252 10.6569 22.4413V24.3212H20.0223C20.2116 24.3212 20.365 24.4746 20.365 24.664C20.365 24.8532 20.2116 25.0067 20.0223 25.0067Z" fill="#333333"/>
<path fill-rule="evenodd" clip-rule="evenodd" d="M10.986 23.4559C10.8982 23.4559 10.8105 23.4225 10.7436 23.3556L10.314 22.926L9.88445 23.3556C9.7506 23.4894 9.5336 23.4894 9.39975 23.3556C9.26584 23.2218 9.26584 23.0048 9.39975 22.8709L10.0717 22.199C10.2055 22.0652 10.4225 22.0652 10.5564 22.199L11.2283 22.8709C11.3622 23.0048 11.3622 23.2218 11.2283 23.3556C11.1614 23.4225 11.0737 23.4559 10.986 23.4559Z" fill="#333333"/>
</svg>
