<svg width="27" height="27" viewBox="0 0 27 27" fill="none" xmlns="http://www.w3.org/2000/svg">
<g clip-path="url(#clip0_421_129)">
<path d="M21.5915 17.8495C21.9755 17.9719 22.3889 17.7609 22.5112 17.3812L23.182 15.3225C23.2537 15.1031 23.1314 14.8627 22.912 14.7909L21.9797 14.4872C22.0176 14.1581 22.0387 13.8291 22.0387 13.5C22.0387 13.1709 22.0176 12.8419 21.9797 12.5128L22.6167 12.3061C22.8023 12.247 22.9542 12.1162 23.0428 11.9433C23.1314 11.7703 23.1483 11.572 23.085 11.3864L22.5112 9.62297C22.3889 9.23906 21.9712 9.02812 21.5915 9.15469L20.9545 9.36141C20.6297 8.78766 20.2415 8.24766 19.7944 7.7625L20.1909 7.21828C20.4272 6.89344 20.3554 6.43359 20.0306 6.19734L18.5287 5.10469C18.2039 4.86844 17.744 4.94016 17.5078 5.265L17.1112 5.80922C16.5079 5.53078 15.8794 5.32406 15.2339 5.1975V4.52672C15.2339 4.12172 14.9048 3.79688 14.504 3.79688H12.6478C12.2428 3.79688 11.9179 4.12594 11.9179 4.52672V5.1975C11.2725 5.32406 10.6439 5.53078 10.0406 5.80922L9.64404 5.265C9.40779 4.94016 8.95217 4.86844 8.62311 5.10469L7.12123 6.19734C6.96092 6.31125 6.85967 6.48 6.83014 6.67406C6.80061 6.86812 6.84701 7.06219 6.96092 7.21828L7.35326 7.7625C6.90607 8.24766 6.51795 8.78344 6.19311 9.36141L5.55607 9.15469C5.37045 9.09562 5.17217 9.10828 4.9992 9.19687C4.82623 9.28547 4.69545 9.43734 4.63639 9.62297L4.06264 11.3864C4.00357 11.572 4.01623 11.7703 4.10482 11.9433C4.19342 12.1162 4.34529 12.247 4.53092 12.3061L5.16795 12.5128C5.12998 12.8419 5.10889 13.1709 5.10889 13.5C5.10889 13.8291 5.12998 14.1581 5.16795 14.4872L4.23561 14.7909C4.01623 14.8627 3.89389 15.1031 3.96561 15.3225L4.63639 17.3812C4.69545 17.5669 4.82623 17.7187 4.9992 17.8073C5.17217 17.8959 5.37045 17.9128 5.55607 17.8495L6.19311 17.6428C6.51795 18.2208 6.90607 18.7566 7.35326 19.2417L6.96092 19.7859C6.84701 19.9462 6.80061 20.1361 6.83014 20.3302C6.85967 20.5242 6.96514 20.693 7.12123 20.8069L8.62311 21.8995C8.94795 22.1358 9.40779 22.0641 9.64404 21.7392L10.0406 21.195C10.6439 21.4734 11.2725 21.6802 11.9179 21.8067V22.4775C11.9179 22.8825 12.247 23.2073 12.6478 23.2073H14.504C14.909 23.2073 15.2339 22.8783 15.2339 22.4775V21.8067C15.8794 21.6802 16.5079 21.4734 17.1112 21.195L17.5036 21.7392C17.7398 22.0641 18.1997 22.14 18.5245 21.8995L20.0264 20.8069C20.3512 20.5706 20.4272 20.1108 20.1867 19.7859L19.7944 19.2417C20.2415 18.7566 20.6297 18.2208 20.9545 17.6428L21.5915 17.8495ZM20.2584 17.1577C19.9462 17.7272 19.5623 18.2545 19.1194 18.727C18.8789 18.9844 18.8494 19.3767 19.0561 19.6594L19.44 20.1867L18.1195 21.1444L17.7356 20.617C17.5289 20.3344 17.1492 20.2373 16.8286 20.3892C16.2422 20.6677 15.622 20.8702 14.9892 20.9883C14.6433 21.0516 14.3901 21.3553 14.3901 21.7055V22.3552H12.7575V21.7055C12.7575 21.3553 12.5044 21.0516 12.1584 20.9883C11.5256 20.8702 10.9054 20.6677 10.3148 20.3892C9.9942 20.2373 9.61451 20.3344 9.40779 20.617L9.02389 21.1444L7.70342 20.1867L8.08732 19.6594C8.29404 19.3767 8.26873 18.9844 8.02404 18.727C7.58107 18.2545 7.19717 17.7272 6.88498 17.1577C6.71623 16.8497 6.3492 16.702 6.02014 16.8117L5.39998 17.0142L4.89795 15.4617L5.51811 15.2592C5.85139 15.1495 6.06233 14.8205 6.01592 14.4661C5.97373 14.1455 5.95264 13.8164 5.95264 13.4958C5.95264 13.1752 5.97373 12.8503 6.01592 12.5255C6.06233 12.1753 5.85139 11.842 5.51811 11.7323L4.89795 11.5298L5.39998 9.97734L6.02014 10.1798C6.35342 10.2895 6.71623 10.1419 6.8892 9.83391C7.20139 9.26437 7.58529 8.73703 8.02826 8.26453C8.27295 8.00719 8.29826 7.61484 8.09154 7.33219L7.70764 6.80484L9.02811 5.84719L9.41201 6.37453C9.61873 6.65719 9.99842 6.75422 10.319 6.60234C10.9054 6.32391 11.5256 6.12141 12.1584 6.00328C12.5044 5.94 12.7575 5.63625 12.7575 5.28609V4.63641H14.3901V5.28609C14.3901 5.63625 14.6433 5.94 14.9892 6.00328C15.622 6.12141 16.2422 6.32391 16.8328 6.60234C17.1534 6.75422 17.5331 6.65719 17.7398 6.37453L18.1237 5.84719L19.4442 6.80484L19.0603 7.33219C18.8536 7.61484 18.8789 8.00719 19.1236 8.26453C19.5665 8.73703 19.9504 9.26437 20.2626 9.83391C20.4314 10.1419 20.7984 10.2895 21.1275 10.1798L21.7476 9.97734L22.2539 11.5298L21.6337 11.7323C21.3004 11.842 21.0895 12.1711 21.1359 12.5255C21.1781 12.8461 21.1992 13.1752 21.1992 13.4958C21.1992 13.8164 21.1781 14.1412 21.1359 14.4661C21.0895 14.8162 21.3004 15.1495 21.6337 15.2592L22.2539 15.4617L21.7476 17.0142L21.1275 16.8117C20.7942 16.702 20.4314 16.8497 20.2626 17.1577H20.2584Z" fill="#333333"/>
<path d="M13.5 7.17188C10.0111 7.17188 7.17188 10.0111 7.17188 13.5C7.17188 16.9889 10.0111 19.8281 13.5 19.8281C16.9889 19.8281 19.8281 16.9889 19.8281 13.5C19.8281 10.0111 16.9889 7.17188 13.5 7.17188ZM13.5 18.9844C10.4752 18.9844 8.01562 16.5248 8.01562 13.5C8.01562 10.4752 10.4752 8.01562 13.5 8.01562C16.5248 8.01562 18.9844 10.4752 18.9844 13.5C18.9844 16.5248 16.5248 18.9844 13.5 18.9844Z" fill="#333333"/>
<path d="M14.4702 12.4453H15.103V14.5547H14.4702V15.3984H16.5796V14.5547H15.9468V12.4453H16.5796V11.6016H14.4702V12.4453Z" fill="#333333"/>
<path d="M12.4452 11.6016H11.6015C11.4032 11.6016 11.2345 11.7408 11.188 11.9306L10.416 15.3984H11.2809L11.4665 14.5547H12.5718L12.7574 15.3984H13.6223L12.8502 11.9306C12.808 11.7366 12.6351 11.6016 12.4368 11.6016H12.4452ZM11.6605 13.7109L11.9432 12.4453H12.112L12.3946 13.7109H11.6648H11.6605Z" fill="#333333"/>
<path d="M19.6383 24.085C14.9808 26.7892 9.10405 26.1015 5.17639 22.4523L5.98218 22.5662L6.1003 21.7309L4.01202 21.4314C3.87702 21.4145 3.74624 21.4567 3.65343 21.5495C3.56061 21.6423 3.51421 21.7773 3.5353 21.9081L3.83483 23.9964L4.67014 23.8782L4.5478 23.0261C7.03264 25.359 10.2558 26.574 13.5126 26.574C15.7612 26.574 18.0225 25.9961 20.0644 24.8106L19.6425 24.0808L19.6383 24.085Z" fill="#333333"/>
<path d="M24.8822 7.04932L24.1482 7.46697C26.7765 12.1034 26.0635 17.9337 22.4565 21.8234L22.5704 21.0176L21.7351 20.8995L21.4355 22.9878C21.4187 23.1185 21.4608 23.2535 21.5537 23.3463C21.6338 23.4265 21.7393 23.4687 21.8532 23.4687H21.9122L24.0005 23.1692L23.8824 22.3338L23.0176 22.4562C26.9241 18.3007 27.7046 12.0317 24.8822 7.05354V7.04932Z" fill="#333333"/>
<path d="M7.04956 2.11772L7.46722 2.85178C12.1036 0.2235 17.9339 0.936469 21.8236 4.54772L21.0178 4.43381L20.8997 5.26913L22.988 5.56866C22.988 5.56866 23.026 5.56866 23.0471 5.56866C23.1567 5.56866 23.2664 5.52647 23.3466 5.44631C23.4394 5.3535 23.4858 5.2185 23.4647 5.08772L23.1652 2.99944L22.3299 3.11756L22.4522 3.98241C18.301 0.0758439 12.0277 -0.704625 7.04956 2.11772Z" fill="#333333"/>
<path d="M4.42959 5.98218L5.26491 6.1003L5.56444 4.01202C5.58131 3.88124 5.53913 3.74624 5.44631 3.65343C5.3535 3.56061 5.22272 3.51421 5.08772 3.5353L2.99944 3.83483L3.11756 4.67014L3.98241 4.5478C0.0758439 8.69905 -0.704625 14.9723 2.11772 19.9505L2.85178 19.5328C0.2235 14.8964 0.936469 9.06608 4.54772 5.17639L4.43381 5.98218H4.42959Z" fill="#333333"/>
</g>
<defs>
<clipPath id="clip0_421_129">
<rect width="27" height="27" fill="white"/>
</clipPath>
</defs>
</svg>
