<svg width="27" height="27" viewBox="0 0 27 27" fill="none" xmlns="http://www.w3.org/2000/svg">
<g clip-path="url(#clip0_421_241)">
<path d="M25.2 0H1.8C0.805887 0 0 0.805887 0 1.8V25.2C0 26.1941 0.805887 27 1.8 27H25.2C26.1941 27 27 26.1941 27 25.2V1.8C27 0.805887 26.1941 0 25.2 0ZM1.8 0.9H25.2C25.6971 0.9 26.1 1.30294 26.1 1.8V3.6H0.9V1.8C0.9 1.30294 1.30294 0.9 1.8 0.9ZM25.2 26.1H1.8C1.30294 26.1 0.9 25.6971 0.9 25.2V6.75H24.3C24.5485 6.75 24.75 6.54853 24.75 6.3C24.75 6.05147 24.5485 5.85 24.3 5.85H0.9V4.5H26.1V23.85H2.7C2.45147 23.85 2.25 24.0515 2.25 24.3C2.25 24.5485 2.45147 24.75 2.7 24.75H26.1V25.2C26.1 25.6971 25.6971 26.1 25.2 26.1Z" fill="#333333"/>
<path d="M13.6086 21.1181C13.762 21.4136 14.0671 21.5994 14.4001 21.6H15.5917C15.8863 21.5989 16.1613 21.4523 16.3266 21.2085L18.6693 17.762L21.0273 21.2085C21.1925 21.4523 21.4675 21.5989 21.7621 21.6H22.9501C23.2825 21.5987 23.5867 21.4131 23.7399 21.1181C23.9018 20.8121 23.8808 20.4417 23.6854 20.156L20.3784 15.2815L23.6872 10.444C23.8826 10.1583 23.9036 9.78788 23.7417 9.48195C23.5882 9.18636 23.2831 9.00061 22.9501 9H21.7603C21.4657 9.00114 21.1907 9.14766 21.0255 9.3915L18.6828 12.838L16.3248 9.3915C16.1595 9.14766 15.8845 9.00114 15.5899 9H14.4001C14.0677 9.00128 13.7635 9.18693 13.6104 9.48195C13.4484 9.78788 13.4694 10.1583 13.6648 10.444L14.082 11.0538C14.1699 11.1929 14.3269 11.2729 14.4911 11.2624C14.6554 11.2518 14.8008 11.1524 14.8703 11.0032C14.9397 10.8539 14.9222 10.6787 14.8245 10.5462L14.4001 9.9H15.5841L17.9416 13.3466C18.1061 13.5916 18.3818 13.7386 18.6769 13.7386C18.972 13.7386 19.2477 13.5916 19.4122 13.3466L21.7603 9.9L22.9443 9.936L19.6354 14.774C19.4206 15.0919 19.4206 15.5085 19.6354 15.8265L22.9501 20.7H21.768L19.4104 17.2535C19.2459 17.0084 18.9702 16.8614 18.6751 16.8614C18.38 16.8614 18.1043 17.0084 17.9398 17.2535L15.5899 20.7L14.406 20.664L17.7148 15.826C17.9296 15.5081 17.9296 15.0915 17.7148 14.7735L15.7465 11.8962C15.6585 11.7571 15.5016 11.6771 15.3373 11.6876C15.1731 11.6982 15.0277 11.7976 14.9582 11.9468C14.8887 12.0961 14.9063 12.2713 15.004 12.4038L16.9723 15.3185L13.6635 20.156C13.4679 20.4416 13.4468 20.812 13.6086 21.1181Z" fill="#333333"/>
<path d="M7.6463 21.6C7.74665 21.6 7.8479 21.5969 7.94915 21.5906C10.348 21.3901 12.1828 19.3679 12.1499 16.961V13.5C12.1499 13.2515 11.9484 13.05 11.6999 13.05C11.4514 13.05 11.2499 13.2515 11.2499 13.5V16.961C11.284 18.8937 9.81683 20.5234 7.8911 20.6919C6.89667 20.7587 5.91906 20.4102 5.19108 19.7295C4.4631 19.0487 4.04991 18.0967 4.0499 17.1V9.9H5.3999V17.023C5.38726 18.2002 6.26246 19.1984 7.4312 19.3397C8.06303 19.4014 8.69153 19.1933 9.16171 18.7667C9.63189 18.3402 9.89999 17.7348 9.8999 17.1V9.9H11.2499V11.7C11.2499 11.9485 11.4514 12.15 11.6999 12.15C11.9484 12.15 12.1499 11.9485 12.1499 11.7V9.9C12.1499 9.40294 11.747 9 11.2499 9H9.8999C9.40285 9 8.9999 9.40294 8.9999 9.9V17.1C9.00003 17.4816 8.83865 17.8455 8.55568 18.1015C8.27272 18.3575 7.8946 18.4819 7.5149 18.4437C6.80748 18.3482 6.28455 17.7367 6.2999 17.023V9.9C6.2999 9.40294 5.89696 9 5.3999 9H4.0499C3.55285 9 3.1499 9.40294 3.1499 9.9V17.1C3.15138 18.3444 3.66638 19.5329 4.57325 20.385C5.40396 21.169 6.50407 21.6039 7.6463 21.6Z" fill="#333333"/>
<path d="M2.25005 2.6998H2.70005C2.94858 2.6998 3.15005 2.49833 3.15005 2.2498C3.15005 2.00128 2.94858 1.7998 2.70005 1.7998H2.25005C2.00152 1.7998 1.80005 2.00128 1.80005 2.2498C1.80005 2.49833 2.00152 2.6998 2.25005 2.6998Z" fill="#333333"/>
<path d="M4.50005 2.6998H4.95005C5.19858 2.6998 5.40005 2.49833 5.40005 2.2498C5.40005 2.00128 5.19858 1.7998 4.95005 1.7998H4.50005C4.25152 1.7998 4.05005 2.00128 4.05005 2.2498C4.05005 2.49833 4.25152 2.6998 4.50005 2.6998Z" fill="#333333"/>
<path d="M6.75005 2.6998H7.20005C7.44858 2.6998 7.65005 2.49833 7.65005 2.2498C7.65005 2.00128 7.44858 1.7998 7.20005 1.7998H6.75005C6.50152 1.7998 6.30005 2.00128 6.30005 2.2498C6.30005 2.49833 6.50152 2.6998 6.75005 2.6998Z" fill="#333333"/>
<path d="M18.45 2.6998H24.75C24.9985 2.6998 25.2 2.49833 25.2 2.2498C25.2 2.00128 24.9985 1.7998 24.75 1.7998H18.45C18.2015 1.7998 18 2.00128 18 2.2498C18 2.49833 18.2015 2.6998 18.45 2.6998Z" fill="#333333"/>
</g>
<defs>
<clipPath id="clip0_421_241">
<rect width="27" height="27" fill="white"/>
</clipPath>
</defs>
</svg>
