<svg width="27" height="27" viewBox="0 0 27 27" fill="none" xmlns="http://www.w3.org/2000/svg">
<g clip-path="url(#clip0_421_76)">
<path d="M13.8267 18.6247H13.1824C12.6007 18.6247 12.1353 18.163 12.0906 17.5382L11.9921 15.999C11.2493 15.827 10.5513 15.5372 9.90693 15.1207L8.74353 16.1439C8.28711 16.5513 7.62486 16.5423 7.2132 16.1258L6.75678 15.664C6.34512 15.2475 6.33617 14.5865 6.73889 14.1157L7.74121 12.9567C7.33849 12.3048 7.04316 11.5895 6.87313 10.8471L5.35175 10.7475C4.74319 10.7022 4.27783 10.2314 4.27783 9.64286V8.99095C4.27783 8.40241 4.73425 7.93159 5.35175 7.88632L6.87313 7.78672C7.04316 7.03521 7.32954 6.32897 7.74121 5.67706L6.73889 4.51811C6.33617 4.05634 6.34512 3.38632 6.75678 2.96982L7.2132 2.50805C7.62486 2.09155 8.27816 2.08249 8.74353 2.48994L9.88903 3.50402C10.5334 3.09658 11.2404 2.79779 11.9742 2.62575L12.0727 1.08652C12.1174 0.470825 12.5828 0 13.1645 0H13.8088C14.3905 0 14.8559 0.461771 14.9006 1.08652L14.9991 2.62575C15.7419 2.79779 16.4399 3.08752 17.0843 3.50402L18.2298 2.48994C18.6862 2.08249 19.3484 2.09155 19.7601 2.50805L20.2165 2.96982C20.6282 3.38632 20.6371 4.04728 20.2344 4.51811L19.25 5.65895C19.6527 6.31086 19.948 7.02616 20.1181 7.76861L21.6395 7.86821C22.248 7.91348 22.7134 8.38431 22.7134 8.97284V9.62475C22.7134 10.2133 22.257 10.6841 21.6395 10.7294L20.1181 10.829C19.948 11.5805 19.6617 12.2867 19.25 12.9386L20.2523 14.0976C20.655 14.5594 20.6461 15.2294 20.2344 15.6459L19.778 16.1076C19.3663 16.5241 18.713 16.5332 18.2477 16.1258L17.1022 15.1117C16.4578 15.5191 15.7508 15.8179 15.017 15.9899L14.9185 17.5292C14.8738 18.163 14.4084 18.6247 13.8267 18.6247ZM9.87114 14.4326C9.93378 14.4326 9.98748 14.4507 10.0412 14.4869C10.7392 14.9668 11.5089 15.2928 12.3322 15.4467C12.4664 15.4738 12.5738 15.5915 12.5828 15.7274L12.6991 17.502C12.717 17.7917 12.9228 18.0091 13.1824 18.0091H13.8267C14.0862 18.0091 14.2921 17.7917 14.31 17.502L14.4263 15.7274C14.4353 15.5915 14.5337 15.4738 14.6769 15.4467C15.5002 15.2837 16.2699 14.9668 16.9679 14.4869C17.0843 14.4054 17.2364 14.4145 17.3438 14.5141L18.6683 15.6821C18.8831 15.8722 19.1784 15.8813 19.3663 15.7002L19.8227 15.2384C20.0017 15.0573 19.9928 14.7495 19.8048 14.5322L18.6504 13.1922C18.5609 13.0835 18.5519 12.9296 18.6235 12.8119C19.0979 12.1056 19.42 11.327 19.5722 10.494C19.599 10.3581 19.7154 10.2495 19.8496 10.2404L21.6037 10.1227C21.89 10.1046 22.1048 9.89638 22.1048 9.6338V8.98189C22.1048 8.71932 21.89 8.51107 21.6037 8.49296L19.8496 8.37525C19.7154 8.3662 19.599 8.2666 19.5722 8.12173C19.4111 7.28873 19.0979 6.51006 18.6235 5.80382C18.543 5.68612 18.5519 5.53219 18.6504 5.42354L19.8048 4.0835C19.9928 3.8662 20.0017 3.5674 19.8227 3.37726L19.3663 2.91549C19.1873 2.73441 18.8831 2.74346 18.6683 2.9336L17.3348 4.11066C17.2275 4.20121 17.0753 4.21026 16.959 4.13783C16.2609 3.65795 15.4913 3.34105 14.668 3.17807C14.5337 3.15091 14.4263 3.0332 14.4174 2.89738L14.301 1.12274C14.2831 0.832998 14.0773 0.615694 13.8178 0.615694H13.1734C12.9139 0.615694 12.7081 0.832998 12.6902 1.12274L12.5738 2.89738C12.5649 3.0332 12.4664 3.15091 12.3232 3.17807C11.4999 3.34105 10.7303 3.65795 10.0322 4.13783C9.91588 4.21932 9.76374 4.21026 9.65635 4.11066L8.33186 2.94266C8.11708 2.75252 7.82175 2.74346 7.63381 2.92455L7.1774 3.38632C6.99841 3.5674 7.00736 3.87525 7.1953 4.09256L8.34976 5.4326C8.43925 5.54125 8.4482 5.69517 8.3766 5.81288C7.90229 6.51911 7.58012 7.29779 7.42798 8.13078C7.40113 8.2666 7.28479 8.37525 7.15055 8.38431L5.39649 8.50201C5.11012 8.52012 4.89533 8.72837 4.89533 8.99095V9.64286C4.89533 9.90543 5.11012 10.1137 5.39649 10.1318L7.15055 10.2495C7.28479 10.2586 7.40113 10.3581 7.42798 10.503C7.58907 11.336 7.90229 12.1147 8.3766 12.8209C8.45715 12.9386 8.4482 13.0926 8.34976 13.2012L7.1953 14.5412C7.00736 14.7586 6.99841 15.0573 7.1774 15.2475L7.63381 15.7093C7.8128 15.8903 8.11708 15.8813 8.33186 15.6911L9.65635 14.5231C9.72795 14.4598 9.79954 14.4326 9.87114 14.4326Z" fill="#333333"/>
<path d="M13.5045 14.6229C10.6049 14.6229 8.25122 12.2417 8.25122 9.30805C8.25122 6.37445 10.6049 3.99316 13.5045 3.99316C16.404 3.99316 18.7577 6.37445 18.7577 9.30805C18.7577 12.2417 16.3951 14.6229 13.5045 14.6229ZM13.5045 4.60886C10.945 4.60886 8.85977 6.71852 8.85977 9.30805C8.85977 11.8976 10.945 14.0072 13.5045 14.0072C16.0639 14.0072 18.1491 11.8976 18.1491 9.30805C18.1491 6.71852 16.0639 4.60886 13.5045 4.60886Z" fill="#333333"/>
<path d="M24.7985 23.2878H2.20152C0.984421 23.2878 0 22.2919 0 21.0605V7.30695C0 6.07556 0.984421 5.07959 2.20152 5.07959H7.92012C8.09016 5.07959 8.22439 5.2154 8.22439 5.38744C8.22439 5.55947 8.09016 5.69528 7.92012 5.69528H2.20152C1.32449 5.69528 0.608551 6.41963 0.608551 7.30695V21.0605C0.608551 21.9478 1.32449 22.6721 2.20152 22.6721H24.7985C25.6755 22.6721 26.3915 21.9478 26.3915 21.0605V7.30695C26.3915 6.41963 25.6755 5.69528 24.7985 5.69528H19.0799C18.9098 5.69528 18.7756 5.55947 18.7756 5.38744C18.7756 5.2154 18.9098 5.07959 19.0799 5.07959H24.7985C26.0156 5.07959 27 6.07556 27 7.30695V21.0605C27 22.2828 26.0156 23.2878 24.7985 23.2878Z" fill="#333333"/>
<path d="M15.9028 26.9998H11.097C10.9896 26.9998 10.8912 26.9455 10.8375 26.855C10.7838 26.7644 10.7749 26.6467 10.8286 26.5471C11.4192 25.4063 11.4192 24.3198 10.8286 23.1155C10.7838 23.0159 10.7838 22.9073 10.8375 22.8167C10.8912 22.7262 10.9896 22.6719 11.097 22.6719H15.9028C16.0102 22.6719 16.1086 22.7262 16.1623 22.8167C16.216 22.9073 16.225 23.025 16.1713 23.1155C15.5806 24.3198 15.5806 25.4063 16.1713 26.5471C16.225 26.6467 16.216 26.7554 16.1623 26.855C16.1086 26.9365 16.0102 26.9998 15.9028 26.9998ZM11.5803 26.3751H15.4285C15.0258 25.361 15.0258 24.3379 15.4374 23.2876H11.5713C11.983 24.3379 11.983 25.361 11.5803 26.3751Z" fill="#333333"/>
<path d="M17.3616 27H9.64729C9.47726 27 9.34302 26.8642 9.34302 26.6921C9.34302 26.5201 9.47726 26.3843 9.64729 26.3843H17.3616C17.5316 26.3843 17.6659 26.5201 17.6659 26.6921C17.6659 26.8551 17.5316 27 17.3616 27Z" fill="#333333"/>
<path d="M26.6957 19.9375H0.304275C0.134239 19.9375 0 19.8017 0 19.6296C0 19.4576 0.134239 19.3218 0.304275 19.3218H26.6957C26.8658 19.3218 27 19.4576 27 19.6296C27 19.8017 26.8658 19.9375 26.6957 19.9375Z" fill="#333333"/>
<path d="M15.4466 21.6128H11.5626C11.3925 21.6128 11.2583 21.4769 11.2583 21.3049C11.2583 21.1329 11.3925 20.9971 11.5626 20.9971H15.4466C15.6166 20.9971 15.7508 21.1329 15.7508 21.3049C15.7508 21.4769 15.6166 21.6128 15.4466 21.6128Z" fill="#333333"/>
<path d="M14.0237 10.5937C13.8984 10.5937 13.791 10.5213 13.7463 10.4036L12.8872 8.38447C12.8245 8.23055 12.8961 8.04946 13.0483 7.97703C13.2004 7.91365 13.3794 7.98608 13.451 8.14001L14.0237 9.49815L14.5965 8.14001C14.6591 7.98608 14.8471 7.91365 14.9992 7.97703C15.1513 8.04041 15.2229 8.23055 15.1603 8.38447L14.3012 10.4036C14.2564 10.5213 14.1401 10.5937 14.0237 10.5937Z" fill="#333333"/>
<path d="M15.8492 10.6572C15.6792 10.6572 15.5449 10.5214 15.5449 10.3493V8.26683C15.5449 8.0948 15.6792 7.95898 15.8492 7.95898C16.0192 7.95898 16.1535 8.0948 16.1535 8.26683V10.3493C16.1624 10.5214 16.0192 10.6572 15.8492 10.6572Z" fill="#333333"/>
<path d="M16.4399 9.70647H15.8492C15.6792 9.70647 15.5449 9.57066 15.5449 9.39862V8.26683C15.5449 8.0948 15.6792 7.95898 15.8492 7.95898H16.4399C16.9142 7.95898 17.3079 8.34832 17.3079 8.83726C17.3079 9.31713 16.9231 9.70647 16.4399 9.70647ZM16.1624 9.09078H16.4488C16.592 9.09078 16.7083 8.97307 16.7083 8.8282C16.7083 8.68333 16.592 8.56563 16.4488 8.56563H16.1624V9.09078Z" fill="#333333"/>
<path d="M12.1711 10.5938C12.0011 10.5938 11.8669 10.458 11.8669 10.2859V9.00929L11.3657 9.51633C11.2494 9.63403 11.0525 9.63403 10.9361 9.51633L10.435 9.00929V10.2859C10.435 10.458 10.3007 10.5938 10.1307 10.5938C9.96065 10.5938 9.82642 10.458 9.82642 10.2859V8.26683C9.82642 8.14007 9.89801 8.03142 10.0144 7.97709C10.1307 7.93182 10.256 7.95898 10.3455 8.04047L11.1599 8.86442L11.9742 8.04047C12.0637 7.94993 12.189 7.92277 12.3054 7.97709C12.4217 8.02236 12.4933 8.14007 12.4933 8.26683V10.2859C12.4844 10.458 12.3412 10.5938 12.1711 10.5938Z" fill="#333333"/>
<path d="M5.89748 18.4438H1.67342C1.50338 18.4438 1.36914 18.308 1.36914 18.136C1.36914 17.9639 1.50338 17.8281 1.67342 17.8281H5.89748C6.06752 17.8281 6.20176 17.9639 6.20176 18.136C6.20176 18.2989 6.06752 18.4438 5.89748 18.4438Z" fill="#333333"/>
<path d="M5.89748 17.0854H1.67342C1.50338 17.0854 1.36914 16.9496 1.36914 16.7776C1.36914 16.6055 1.50338 16.4697 1.67342 16.4697H5.89748C6.06752 16.4697 6.20176 16.6055 6.20176 16.7776C6.20176 16.9496 6.06752 17.0854 5.89748 17.0854Z" fill="#333333"/>
<path d="M4.78777 15.7275H1.67342C1.50338 15.7275 1.36914 15.5917 1.36914 15.4197C1.36914 15.2476 1.50338 15.1118 1.67342 15.1118H4.78777C4.95781 15.1118 5.09204 15.2476 5.09204 15.4197C5.09204 15.5917 4.95781 15.7275 4.78777 15.7275Z" fill="#333333"/>
<path d="M25.2996 18.4438H21.0755C20.9055 18.4438 20.7712 18.308 20.7712 18.136C20.7712 17.9639 20.9055 17.8281 21.0755 17.8281H25.2996C25.4696 17.8281 25.6039 17.9639 25.6039 18.136C25.6039 18.2989 25.4696 18.4438 25.2996 18.4438Z" fill="#333333"/>
<path d="M25.2996 17.0854H21.0755C20.9055 17.0854 20.7712 16.9496 20.7712 16.7776C20.7712 16.6055 20.9055 16.4697 21.0755 16.4697H25.2996C25.4696 16.4697 25.6039 16.6055 25.6039 16.7776C25.6039 16.9496 25.4696 17.0854 25.2996 17.0854Z" fill="#333333"/>
<path d="M25.2995 15.7275H22.1851C22.0151 15.7275 21.8809 15.5917 21.8809 15.4197C21.8809 15.2476 22.0151 15.1118 22.1851 15.1118H25.2995C25.4695 15.1118 25.6038 15.2476 25.6038 15.4197C25.6038 15.5917 25.4695 15.7275 25.2995 15.7275Z" fill="#333333"/>
</g>
<defs>
<clipPath id="clip0_421_76">
<rect width="27" height="27" fill="white"/>
</clipPath>
</defs>
</svg>
