<svg width="27" height="27" viewBox="0 0 27 27" fill="none" xmlns="http://www.w3.org/2000/svg">
<g clip-path="url(#clip0_421_181)">
<path d="M21.5572 5.86427C21.3702 4.46504 20.7499 3.15944 19.7833 2.1306C18.8167 1.10176 17.5523 0.401299 16.1675 0.127455C14.7826 -0.146389 13.3468 0.0201267 12.0614 0.603646C10.7759 1.18717 9.70541 2.15842 8.99994 3.38117C8.38918 3.16716 7.7366 3.1001 7.09509 3.18542C6.19336 3.30941 5.35979 3.73383 4.72908 4.3901C4.09837 5.04637 3.70738 5.89613 3.61929 6.80207C3.58676 7.14286 3.59598 7.48636 3.64674 7.82492C2.49045 8.14087 1.48809 8.86566 0.825762 9.86473C0.163431 10.8638 -0.113874 12.0693 0.045332 13.2573C0.204538 14.4454 0.789439 15.5353 1.69144 16.3247C2.59344 17.1142 3.75126 17.5495 4.94994 17.5499H6.75309L5.50929 18.0615C5.34662 18.1333 5.20832 18.2508 5.11124 18.3998C5.01416 18.5488 4.96247 18.7227 4.96247 18.9005C4.96247 19.0783 5.01416 19.2523 5.11124 19.4013C5.20832 19.5502 5.34662 19.6678 5.50929 19.7396L8.39424 20.9249L5.50884 22.1111C5.3479 22.1845 5.21148 22.3027 5.11582 22.4515C5.02016 22.6003 4.96931 22.7734 4.96931 22.9503C4.96931 23.1272 5.02016 23.3004 5.11582 23.4492C5.21148 23.598 5.3479 23.7161 5.50884 23.7896L13.1755 26.9396C13.3895 27.0181 13.6247 27.0162 13.8374 26.9342L21.491 23.7887C21.654 23.7171 21.7926 23.5996 21.8899 23.4506C21.9872 23.3015 22.039 23.1274 22.039 22.9494C22.039 22.7714 21.9872 22.5973 21.8899 22.4483C21.7926 22.2992 21.654 22.1817 21.491 22.1102L18.6056 20.9249L21.4906 19.7391C21.6529 19.667 21.7909 19.5494 21.8877 19.4005C21.9845 19.2515 22.0361 19.0777 22.0361 18.9001C22.0361 18.7225 21.9845 18.5486 21.8877 18.3997C21.7909 18.2508 21.6529 18.1331 21.4906 18.0611L20.2468 17.5499H21.1499C22.6657 17.5491 24.1219 16.9601 25.2119 15.9068C26.302 14.8536 26.9406 13.4184 26.9934 11.9036C27.0462 10.3888 26.509 8.91265 25.495 7.78609C24.4809 6.65954 23.0692 5.97055 21.5572 5.86427ZM21.1499 22.958L13.5044 26.1035L5.84994 22.9436L9.57639 21.4136L13.1764 22.8923C13.3906 22.9695 13.6254 22.9675 13.8383 22.8869L17.4226 21.414L21.1499 22.958ZM21.1499 18.908L13.5044 22.053L5.84994 18.8936L9.57639 17.3636L13.1588 18.836C13.3764 18.9229 13.619 18.9229 13.8365 18.836L17.4208 17.3636L21.1499 18.908ZM8.99994 14.3999H17.9999C18.4038 14.3981 18.795 14.2593 19.1096 14.0061L21.1499 14.8571L13.5044 18.0021L5.84994 14.8427L7.88889 14.0052C8.2038 14.2589 8.59556 14.3981 8.99994 14.3999ZM8.09994 12.5999V8.09987C8.09994 7.86117 8.19476 7.63225 8.36354 7.46347C8.53232 7.29469 8.76124 7.19987 8.99994 7.19987H17.9999C18.2386 7.19987 18.4676 7.29469 18.6363 7.46347C18.8051 7.63225 18.8999 7.86117 18.8999 8.09987V12.5999C18.8999 12.8386 18.8051 13.0675 18.6363 13.2363C18.4676 13.405 18.2386 13.4999 17.9999 13.4999H8.99994C8.76124 13.4999 8.53232 13.405 8.36354 13.2363C8.19476 13.0675 8.09994 12.8386 8.09994 12.5999ZM21.1499 16.6499H19.1542L21.4942 15.6887C21.6562 15.6163 21.7938 15.4986 21.8904 15.3497C21.987 15.2008 22.0384 15.0271 22.0384 14.8496C22.0384 14.6722 21.987 14.4985 21.8904 14.3496C21.7938 14.2007 21.6562 14.083 21.4942 14.0106L19.6721 13.2618C19.7565 13.0513 19.7999 12.8266 19.7999 12.5999V8.09987C19.7999 7.62248 19.6103 7.16464 19.2727 6.82707C18.9352 6.48951 18.4773 6.29987 17.9999 6.29987H8.99994C8.52255 6.29987 8.06471 6.48951 7.72714 6.82707C7.38958 7.16464 7.19994 7.62248 7.19994 8.09987V12.5999C7.20069 12.8268 7.24483 13.0515 7.32999 13.2618L5.50614 14.0111C5.34425 14.0836 5.2068 14.2014 5.11036 14.3502C5.01392 14.4991 4.96261 14.6727 4.96261 14.8501C4.96261 15.0275 5.01392 15.2011 5.11036 15.3499C5.2068 15.4988 5.34425 15.6166 5.50614 15.6891L7.84569 16.6499H4.94994C3.95486 16.6485 2.99511 16.2809 2.25378 15.6171C1.51245 14.9533 1.04145 14.0398 0.930619 13.0509C0.819791 12.0621 1.0769 11.067 1.65289 10.2556C2.22889 9.44413 3.08345 8.87316 4.05354 8.65157C4.2249 8.61039 4.37382 8.50482 4.46943 8.35677C4.56503 8.20872 4.59996 8.02954 4.56699 7.85642C4.50198 7.53688 4.48484 7.20945 4.51614 6.88487C4.58431 6.18194 4.88749 5.52254 5.37667 5.01318C5.86586 4.50382 6.51249 4.17427 7.21209 4.07777C7.77063 4.00349 8.33888 4.0772 8.85999 4.29152C9.01372 4.34998 9.18346 4.35059 9.3376 4.29322C9.49175 4.23585 9.61979 4.12442 9.69789 3.97967C10.2923 2.87672 11.2245 1.99333 12.3579 1.45912C13.4912 0.924906 14.7659 0.768003 15.9949 1.01143C17.2239 1.25487 18.3426 1.88581 19.1867 2.81169C20.0308 3.73757 20.556 4.90962 20.6851 6.15587C20.7034 6.31654 20.7788 6.46528 20.8976 6.57504C21.0164 6.6848 21.1706 6.74827 21.3322 6.75392C22.6252 6.80606 23.8464 7.36247 24.7341 8.30398C25.6219 9.24548 26.1057 10.4972 26.0819 11.791C26.0581 13.0849 25.5285 14.3179 24.6067 15.2261C23.6848 16.1343 22.444 16.6454 21.1499 16.6499Z" fill="#333333"/>
<path d="M10.9319 12.0183C11.0168 12.1003 11.1305 12.1456 11.2485 12.1446C11.3665 12.1436 11.4793 12.0962 11.5628 12.0128C11.6462 11.9294 11.6935 11.8165 11.6946 11.6985C11.6956 11.5805 11.6502 11.4669 11.5682 11.382L10.5364 10.3501L11.5682 9.31829C11.6502 9.23341 11.6956 9.11974 11.6946 9.00175C11.6935 8.88377 11.6462 8.7709 11.5628 8.68747C11.4793 8.60403 11.3665 8.55671 11.2485 8.55568C11.1305 8.55466 11.0168 8.60001 10.9319 8.68198L9.58195 10.032C9.49759 10.1164 9.4502 10.2308 9.4502 10.3501C9.4502 10.4695 9.49759 10.5839 9.58195 10.6683L10.9319 12.0183Z" fill="#333333"/>
<path d="M15.4318 12.0183C15.5162 12.1026 15.6306 12.15 15.75 12.15C15.8693 12.15 15.9837 12.1026 16.0681 12.0183L17.4181 10.6683C17.5025 10.5839 17.5499 10.4695 17.5499 10.3501C17.5499 10.2308 17.5025 10.1164 17.4181 10.032L16.0681 8.68198C15.9832 8.60001 15.8696 8.55466 15.7516 8.55568C15.6336 8.55671 15.5207 8.60403 15.4373 8.68747C15.3538 8.7709 15.3065 8.88377 15.3055 9.00175C15.3045 9.11974 15.3498 9.23341 15.4318 9.31829L16.4637 10.3501L15.4318 11.382C15.3474 11.4664 15.3 11.5808 15.3 11.7001C15.3 11.8195 15.3474 11.9339 15.4318 12.0183Z" fill="#333333"/>
<path d="M12.9078 12.1274C13.021 12.165 13.1445 12.1561 13.2511 12.1027C13.3578 12.0493 13.4389 11.9557 13.4766 11.8425L14.3766 9.14254C14.4143 9.02916 14.4054 8.90544 14.3519 8.7986C14.3254 8.7457 14.2888 8.69853 14.2441 8.65979C14.1993 8.62106 14.1474 8.59151 14.0913 8.57283C13.9779 8.53512 13.8542 8.54399 13.7473 8.5975C13.6405 8.651 13.5593 8.74476 13.5216 8.85814L12.6216 11.5581C12.6029 11.6143 12.5955 11.6736 12.5998 11.7326C12.6041 11.7917 12.62 11.8493 12.6466 11.9021C12.6732 11.955 12.7099 12.0021 12.7547 12.0408C12.7996 12.0794 12.8516 12.1089 12.9078 12.1274Z" fill="#333333"/>
</g>
<defs>
<clipPath id="clip0_421_181">
<rect width="27" height="27" fill="white"/>
</clipPath>
</defs>
</svg>
