<svg width="27" height="27" viewBox="0 0 27 27" fill="none" xmlns="http://www.w3.org/2000/svg">
<g clip-path="url(#clip0_421_209)">
<path d="M11.8125 21.9375H2.10938C1.55014 21.9368 1.014 21.7144 0.618562 21.3189C0.223122 20.9235 0.000669877 20.3874 0 19.8281L0 2.10938C0.000669877 1.55014 0.223122 1.014 0.618562 0.618562C1.014 0.223122 1.55014 0.000669877 2.10938 0L2.95312 0V0.84375H2.10938C1.77371 0.84375 1.45179 0.977092 1.21444 1.21444C0.977092 1.45179 0.84375 1.77371 0.84375 2.10938V19.8281C0.84375 20.1638 0.977092 20.4857 1.21444 20.7231C1.45179 20.9604 1.77371 21.0938 2.10938 21.0938H11.8125V21.9375Z" fill="#333333"/>
<path d="M3.79688 0H4.64105V0.84375H3.79688V0Z" fill="#333333"/>
<path d="M24.8906 21.9375V21.0938C25.2263 21.0938 25.5482 20.9604 25.7856 20.7231C26.0229 20.4857 26.1562 20.1638 26.1562 19.8281V2.10938C26.1562 1.77371 26.0229 1.45179 25.7856 1.21444C25.5482 0.977092 25.2263 0.84375 24.8906 0.84375H5.48438V0H24.8906C25.4499 0.000669877 25.986 0.223122 26.3814 0.618562C26.7769 1.014 26.9993 1.55014 27 2.10938V19.8281C26.9993 20.3874 26.7769 20.9235 26.3814 21.3189C25.986 21.7144 25.4499 21.9368 24.8906 21.9375Z" fill="#333333"/>
<path d="M8.02856 23.1094L8.45124 21.4222L9.26967 21.6272L8.847 23.3144L8.02856 23.1094Z" fill="#333333"/>
<path d="M11.8125 25.3125H7.59375C7.48186 25.3125 7.37456 25.2681 7.29544 25.1889C7.21632 25.1098 7.17188 25.0025 7.17188 24.8906V24.0469C7.17188 23.7112 7.30522 23.3893 7.54257 23.1519C7.77992 22.9146 8.10184 22.7812 8.4375 22.7812H11.8125V23.625H8.4375C8.32561 23.625 8.21831 23.6694 8.13919 23.7486C8.06007 23.8277 8.01562 23.935 8.01562 24.0469V24.4688H11.8125V25.3125Z" fill="#333333"/>
<path d="M0.421875 17.7188H11.8125V18.5625H0.421875V17.7188Z" fill="#333333"/>
<path d="M1.6875 19.4062H2.53125V20.25H1.6875V19.4062Z" fill="#333333"/>
<path d="M3.375 19.4062H5.90625V20.25H3.375V19.4062Z" fill="#333333"/>
<path d="M23.2031 27H14.7656C14.2064 26.9993 13.6703 26.7769 13.2748 26.3814C12.8794 25.986 12.6569 25.4499 12.6562 24.8906V8.01562C12.6569 7.45639 12.8794 6.92025 13.2748 6.52481C13.6703 6.12937 14.2064 5.90692 14.7656 5.90625H23.2031C23.7624 5.90692 24.2985 6.12937 24.6939 6.52481C25.0894 6.92025 25.3118 7.45639 25.3125 8.01562V24.8906C25.3118 25.4499 25.0894 25.986 24.6939 26.3814C24.2985 26.7769 23.7624 26.9993 23.2031 27ZM14.7656 6.75C14.43 6.75 14.108 6.88334 13.8707 7.12069C13.6333 7.35804 13.5 7.67996 13.5 8.01562V24.8906C13.5 25.2263 13.6333 25.5482 13.8707 25.7856C14.108 26.0229 14.43 26.1562 14.7656 26.1562H23.2031C23.5388 26.1562 23.8607 26.0229 24.0981 25.7856C24.3354 25.5482 24.4688 25.2263 24.4688 24.8906V8.01562C24.4688 7.67996 24.3354 7.35804 24.0981 7.12069C23.8607 6.88334 23.5388 6.75 23.2031 6.75H14.7656Z" fill="#333333"/>
<path d="M21.0938 10.125H16.875C16.0844 10.125 15.7532 9.4365 15.6486 8.85938H13.0781V8.01562H16.0312C16.1431 8.01562 16.2504 8.06007 16.3296 8.13919C16.4087 8.21831 16.4531 8.32561 16.4531 8.4375C16.4531 8.44467 16.4767 9.28125 16.875 9.28125H21.0938C21.492 9.28125 21.5156 8.44467 21.5156 8.4375C21.5156 8.32561 21.5601 8.21831 21.6392 8.13919C21.7183 8.06007 21.8256 8.01562 21.9375 8.01562H24.8906V8.85938H22.3201C22.2155 9.4365 21.8843 10.125 21.0938 10.125Z" fill="#333333"/>
<path d="M17.2969 7.59375H20.6719V8.4375H17.2969V7.59375Z" fill="#333333"/>
<path d="M17.2969 24.8906H20.6719V25.7344H17.2969V24.8906Z" fill="#333333"/>
<path d="M13.0781 23.625H24.8906V24.4688H13.0781V23.625Z" fill="#333333"/>
<path d="M7.59375 11.8125H5.90625C5.79436 11.8125 5.68706 11.7681 5.60794 11.6889C5.52882 11.6098 5.48438 11.5025 5.48438 11.3906V10.7722C5.2488 10.698 5.02024 10.6031 4.80136 10.4887L4.36345 10.9266C4.28434 11.0057 4.17705 11.0501 4.06519 11.0501C3.95332 11.0501 3.84604 11.0057 3.76692 10.9266L2.57344 9.73308C2.49435 9.65396 2.44992 9.54668 2.44992 9.43481C2.44992 9.32295 2.49435 9.21566 2.57344 9.13655L3.01092 8.69864C2.89664 8.47975 2.80191 8.25119 2.72784 8.01562H2.10938C1.99749 8.01562 1.89018 7.97118 1.81106 7.89206C1.73195 7.81294 1.6875 7.70564 1.6875 7.59375V5.90625C1.6875 5.79436 1.73195 5.68706 1.81106 5.60794C1.89018 5.52882 1.99749 5.48438 2.10938 5.48438H2.72784C2.80205 5.2488 2.89692 5.02024 3.01134 4.80136L2.57344 4.36345C2.49435 4.28434 2.44992 4.17705 2.44992 4.06519C2.44992 3.95332 2.49435 3.84604 2.57344 3.76692L3.76692 2.57344C3.84604 2.49435 3.95332 2.44992 4.06519 2.44992C4.17705 2.44992 4.28434 2.49435 4.36345 2.57344L4.80136 3.01092C5.02025 2.89664 5.24881 2.80191 5.48438 2.72784V2.10938C5.48438 1.99749 5.52882 1.89018 5.60794 1.81106C5.68706 1.73195 5.79436 1.6875 5.90625 1.6875H7.59375C7.70564 1.6875 7.81294 1.73195 7.89206 1.81106C7.97118 1.89018 8.01562 1.99749 8.01562 2.10938V2.72784C8.2512 2.80205 8.47976 2.89692 8.69864 3.01134L9.13655 2.57344C9.21566 2.49435 9.32295 2.44992 9.43481 2.44992C9.54668 2.44992 9.65396 2.49435 9.73308 2.57344L10.9266 3.76692C11.0057 3.84604 11.0501 3.95332 11.0501 4.06519C11.0501 4.17705 11.0057 4.28434 10.9266 4.36345L10.4891 4.80136C10.6034 5.02025 10.6981 5.24881 10.7722 5.48438H11.3906C11.5025 5.48438 11.6098 5.52882 11.6889 5.60794C11.7681 5.68706 11.8125 5.79436 11.8125 5.90625V7.59375C11.8125 7.70564 11.7681 7.81294 11.6889 7.89206C11.6098 7.97118 11.5025 8.01562 11.3906 8.01562H10.7722C10.698 8.2512 10.6031 8.47976 10.4887 8.69864L10.9266 9.13655C11.0057 9.21566 11.0501 9.32295 11.0501 9.43481C11.0501 9.54668 11.0057 9.65396 10.9266 9.73308L9.73308 10.9266C9.65396 11.0057 9.54668 11.0501 9.43481 11.0501C9.32295 11.0501 9.21566 11.0057 9.13655 10.9266L8.69864 10.4891C8.47975 10.6034 8.25119 10.6981 8.01562 10.7722V11.3906C8.01562 11.5025 7.97118 11.6098 7.89206 11.6889C7.81294 11.7681 7.70564 11.8125 7.59375 11.8125ZM6.32812 10.9688H7.17188V10.4498C7.17178 10.3542 7.20422 10.2613 7.26386 10.1865C7.3235 10.1117 7.4068 10.0593 7.50009 10.0381C7.86994 9.95396 8.22275 9.80744 8.54339 9.60483C8.62436 9.55375 8.7203 9.53173 8.81544 9.54238C8.91059 9.55304 8.99927 9.59574 9.06694 9.66347L9.43481 10.0313L10.0313 9.43481L9.66347 9.06694C9.59574 8.99927 9.55304 8.91059 9.54238 8.81544C9.53173 8.7203 9.55375 8.62436 9.60483 8.54339C9.80744 8.22275 9.95396 7.86994 10.0381 7.50009C10.0593 7.4068 10.1117 7.3235 10.1865 7.26386C10.2613 7.20422 10.3542 7.17178 10.4498 7.17188H10.9688V6.32812H10.4498C10.3542 6.32822 10.2613 6.29578 10.1865 6.23614C10.1117 6.1765 10.0593 6.0932 10.0381 5.99991C9.95396 5.63006 9.80744 5.27725 9.60483 4.95661C9.55375 4.87564 9.53173 4.7797 9.54238 4.68456C9.55304 4.58942 9.59574 4.50073 9.66347 4.43306L10.0313 4.06519L9.43481 3.46866L9.06694 3.83653C8.99927 3.90426 8.91059 3.94696 8.81544 3.95762C8.7203 3.96827 8.62436 3.94625 8.54339 3.89517C8.22275 3.69256 7.86994 3.54604 7.50009 3.46191C7.4068 3.44067 7.3235 3.38834 7.26386 3.31352C7.20422 3.23871 7.17178 3.14584 7.17188 3.05016V2.53125H6.32812V3.05016C6.32822 3.14584 6.29578 3.23871 6.23614 3.31352C6.1765 3.38834 6.0932 3.44067 5.99991 3.46191C5.63006 3.54604 5.27725 3.69256 4.95661 3.89517C4.87564 3.94625 4.7797 3.96827 4.68456 3.95762C4.58942 3.94696 4.50073 3.90426 4.43306 3.83653L4.06519 3.46866L3.46866 4.06519L3.83653 4.43306C3.90426 4.50073 3.94696 4.58942 3.95762 4.68456C3.96827 4.7797 3.94625 4.87564 3.89517 4.95661C3.69256 5.27725 3.54604 5.63006 3.46191 5.99991C3.44067 6.0932 3.38834 6.1765 3.31352 6.23614C3.23871 6.29578 3.14584 6.32822 3.05016 6.32812H2.53125V7.17188H3.05016C3.14584 7.17178 3.23871 7.20422 3.31352 7.26386C3.38834 7.3235 3.44067 7.4068 3.46191 7.50009C3.54604 7.86994 3.69256 8.22275 3.89517 8.54339C3.94625 8.62436 3.96827 8.7203 3.95762 8.81544C3.94696 8.91059 3.90426 8.99927 3.83653 9.06694L3.46866 9.43481L4.06519 10.0313L4.43306 9.66347C4.50073 9.59574 4.58942 9.55304 4.68456 9.54238C4.7797 9.53173 4.87564 9.55375 4.95661 9.60483C5.27725 9.80744 5.63006 9.95396 5.99991 10.0381C6.0932 10.0593 6.1765 10.1117 6.23614 10.1865C6.29578 10.2613 6.32822 10.3542 6.32812 10.4498V10.9688Z" fill="#333333"/>
<path d="M6.75 8.85938C6.33281 8.85938 5.92498 8.73566 5.5781 8.50388C5.23121 8.2721 4.96085 7.94266 4.80119 7.55722C4.64154 7.17179 4.59977 6.74766 4.68116 6.33848C4.76255 5.9293 4.96345 5.55345 5.25845 5.25845C5.55345 4.96345 5.9293 4.76255 6.33848 4.68116C6.74766 4.59977 7.17179 4.64154 7.55722 4.80119C7.94266 4.96085 8.2721 5.23121 8.50388 5.5781C8.73566 5.92498 8.85938 6.33281 8.85938 6.75C8.85871 7.30924 8.63625 7.84538 8.24082 8.24082C7.84538 8.63625 7.30924 8.85871 6.75 8.85938ZM6.75 5.48438C6.49968 5.48438 6.25499 5.5586 6.04686 5.69767C5.83873 5.83674 5.67651 6.0344 5.58072 6.26567C5.48492 6.49693 5.45986 6.75141 5.50869 6.99691C5.55753 7.24242 5.67807 7.46793 5.85507 7.64493C6.03207 7.82193 6.25758 7.94247 6.50309 7.99131C6.7486 8.04014 7.00307 8.01508 7.23434 7.91929C7.4656 7.82349 7.66326 7.66128 7.80233 7.45314C7.9414 7.24501 8.01563 7.00032 8.01563 6.75C8.01563 6.41434 7.88228 6.09242 7.64493 5.85507C7.40758 5.61772 7.08567 5.48438 6.75 5.48438Z" fill="#333333"/>
<path d="M7.17188 17.2969H6.32812V15.6094C6.32812 15.4975 6.37257 15.3902 6.45169 15.3111C6.53081 15.2319 6.63811 15.1875 6.75 15.1875H7.36847C7.44267 14.9519 7.53754 14.7234 7.65197 14.5045L7.21406 14.0666C7.13497 13.9875 7.09054 13.8802 7.09054 13.7683C7.09054 13.6564 7.13497 13.5492 7.21406 13.47L8.40755 12.2766C8.48666 12.1975 8.59395 12.153 8.70581 12.153C8.81768 12.153 8.92497 12.1975 9.00408 12.2766L9.44198 12.714C9.66088 12.5998 9.88944 12.505 10.125 12.431V11.8125C10.125 11.7006 10.1694 11.5933 10.2486 11.5142C10.3277 11.4351 10.435 11.3906 10.5469 11.3906H12.2344V12.2344H10.9688V12.7533C10.9688 12.849 10.9364 12.9418 10.8768 13.0166C10.8171 13.0915 10.7338 13.1438 10.6405 13.165C10.2707 13.2492 9.91788 13.3957 9.59723 13.5983C9.51626 13.6494 9.42032 13.6714 9.32518 13.6607C9.23004 13.6501 9.14135 13.6074 9.07369 13.5397L8.70581 13.1718L8.10928 13.7683L8.47716 14.1362C8.54489 14.2039 8.58759 14.2925 8.59824 14.3877C8.6089 14.4828 8.58688 14.5788 8.5358 14.6597C8.33318 14.9804 8.18667 15.3332 8.10253 15.703C8.08129 15.7963 8.02897 15.8796 7.95415 15.9393C7.87933 15.9989 7.78646 16.0313 7.69078 16.0312H7.17188V17.2969Z" fill="#333333"/>
<path d="M10.125 16.4531H9.28125C9.28192 15.8939 9.50437 15.3578 9.89981 14.9623C10.2953 14.5669 10.8314 14.3444 11.3906 14.3438V15.1875C11.055 15.1875 10.733 15.3208 10.4957 15.5582C10.2583 15.7955 10.125 16.1175 10.125 16.4531Z" fill="#333333"/>
<path d="M18.9844 21.0938C18.0665 21.0938 17.1693 20.8216 16.4062 20.3117C15.643 19.8017 15.0482 19.077 14.697 18.229C14.3458 17.3811 14.2539 16.448 14.4329 15.5478C14.612 14.6476 15.054 13.8207 15.703 13.1717C16.352 12.5227 17.1788 12.0807 18.079 11.9017C18.9792 11.7226 19.9123 11.8145 20.7603 12.1657C21.6082 12.517 22.333 13.1118 22.8429 13.8749C23.3528 14.6381 23.625 15.5353 23.625 16.4531C23.6236 17.6835 23.1342 18.863 22.2642 19.7329C21.3942 20.6029 20.2147 21.0923 18.9844 21.0938ZM18.9844 12.6563C18.2334 12.6563 17.4993 12.8789 16.8749 13.2961C16.2506 13.7133 15.7639 14.3063 15.4765 15.0001C15.1891 15.6939 15.114 16.4573 15.2605 17.1939C15.407 17.9304 15.7686 18.6069 16.2996 19.1379C16.8306 19.6689 17.5071 20.0305 18.2436 20.177C18.9802 20.3235 19.7436 20.2484 20.4374 19.961C21.1312 19.6736 21.7242 19.187 22.1414 18.5626C22.5586 17.9382 22.7813 17.2041 22.7813 16.4531C22.78 15.4465 22.3796 14.4815 21.6678 13.7697C20.956 13.0579 19.991 12.6575 18.9844 12.6563Z" fill="#333333"/>
<path d="M18.1405 19.4062C18.0287 19.4061 17.9214 19.3617 17.8423 19.2826L15.7329 17.1732C15.6538 17.0941 15.6094 16.9868 15.6094 16.8749C15.6094 16.763 15.6538 16.6558 15.7329 16.5766L16.9985 15.311C17.0776 15.2319 17.1849 15.1875 17.2968 15.1875C17.4087 15.1875 17.5159 15.2319 17.5951 15.311L18.1405 15.8565L20.3735 13.6235C20.4526 13.5444 20.5599 13.5 20.6718 13.5C20.7837 13.5 20.8909 13.5444 20.9701 13.6235L22.2357 14.8891C22.3148 14.9683 22.3592 15.0755 22.3592 15.1874C22.3592 15.2993 22.3148 15.4066 22.2357 15.4857L18.4388 19.2826C18.3597 19.3617 18.2524 19.4061 18.1405 19.4062ZM16.6277 16.8749L18.1405 18.3878L21.3409 15.1874L20.6718 14.5183L18.4388 16.7513C18.3597 16.8304 18.2524 16.8748 18.1405 16.8748C18.0287 16.8748 17.9214 16.8304 17.8423 16.7513L17.2968 16.2058L16.6277 16.8749Z" fill="#333333"/>
<path d="M24.0469 1.6875H24.8906V2.53125H24.0469V1.6875Z" fill="#333333"/>
<path d="M17.7188 1.6875H23.2031V2.53125H17.7188V1.6875Z" fill="#333333"/>
</g>
<defs>
<clipPath id="clip0_421_209">
<rect width="27" height="27" fill="white"/>
</clipPath>
</defs>
</svg>
