<svg width="7" height="9" viewBox="0 0 7 9" fill="none" xmlns="http://www.w3.org/2000/svg">
<path d="M2.87979 4.455C2.87979 4.143 2.78379 3.87 2.59179 3.636C2.43579 3.45 2.22879 3.303 1.97079 3.195C1.77279 3.105 1.58379 3.051 1.40379 3.033L2.92479 1.431C2.94279 1.623 2.99679 1.824 3.08679 2.034C3.20679 2.31 3.36579 2.532 3.56379 2.7C3.80979 2.91 4.10379 3.021 4.44579 3.033C4.47579 4.113 4.48779 4.926 4.48179 5.472C4.47579 5.874 4.46379 6.069 4.44579 6.057C4.08579 6.033 3.77979 6.132 3.52779 6.354C3.32379 6.528 3.16179 6.768 3.04179 7.074C2.95179 7.302 2.89779 7.527 2.87979 7.749L1.40379 5.967C1.58379 5.937 1.77279 5.871 1.97079 5.769C2.22879 5.643 2.43579 5.484 2.59179 5.292C2.78379 5.046 2.87979 4.767 2.87979 4.455ZM1.44879 9C1.19079 9 0.950789 8.9325 0.728789 8.7975C0.506789 8.6625 0.331289 8.4795 0.202289 8.2485C0.0732891 8.0175 0.00878906 7.764 0.00878906 7.488C0.00878906 7.212 0.0732891 6.9585 0.202289 6.7275C0.331289 6.4965 0.506789 6.312 0.728789 6.174C0.950789 6.036 1.19079 5.967 1.44879 5.967C1.70679 5.967 1.94529 6.036 2.16429 6.174C2.38329 6.312 2.55729 6.4965 2.68629 6.7275C2.81529 6.9585 2.87979 7.212 2.87979 7.488C2.87979 7.764 2.81529 8.0175 2.68629 8.2485C2.55729 8.4795 2.38329 8.6625 2.16429 8.7975C1.94529 8.9325 1.70679 9 1.44879 9ZM4.57179 6.057C4.31379 6.057 4.07379 5.9895 3.85179 5.8545C3.62979 5.7195 3.45429 5.5365 3.32529 5.3055C3.19629 5.0745 3.13179 4.821 3.13179 4.545C3.13179 4.269 3.19629 4.0155 3.32529 3.7845C3.45429 3.5535 3.62979 3.3705 3.85179 3.2355C4.07379 3.1005 4.31379 3.033 4.57179 3.033C4.82979 3.033 5.06979 3.1005 5.29179 3.2355C5.51379 3.3705 5.68929 3.5535 5.81829 3.7845C5.94729 4.0155 6.01179 4.269 6.01179 4.545C6.01179 4.821 5.94729 5.0745 5.81829 5.3055C5.68929 5.5365 5.51379 5.7195 5.29179 5.8545C5.06979 5.9895 4.82979 6.057 4.57179 6.057ZM1.52979 3.033C1.27179 3.033 1.03179 2.964 0.809789 2.826C0.587789 2.688 0.412289 2.5035 0.283289 2.2725C0.154289 2.0415 0.0897891 1.788 0.0897891 1.512C0.0897891 1.236 0.154289 0.9825 0.283289 0.7515C0.412289 0.5205 0.587789 0.337501 0.809789 0.2025C1.03179 0.0675001 1.27179 0 1.52979 0C1.78779 0 2.02779 0.0675001 2.24979 0.2025C2.47179 0.337501 2.64729 0.5205 2.77629 0.7515C2.90529 0.9825 2.96979 1.236 2.96979 1.512C2.96979 1.788 2.90529 2.0415 2.77629 2.2725C2.64729 2.5035 2.47179 2.688 2.24979 2.826C2.02779 2.964 1.78779 3.033 1.52979 3.033Z" fill="#333333"/>
</svg>
