<svg width="42" height="36" viewBox="0 0 42 36" fill="none" xmlns="http://www.w3.org/2000/svg">
<path d="M38.34 9.684C39.444 10.356 40.302 11.238 40.914 12.33C41.526 13.422 41.832 14.598 41.832 15.858C41.832 17.118 41.508 18.3 40.86 19.404L34.2 30.744C33.552 31.848 32.676 32.706 31.572 33.318C30.468 33.93 29.286 34.236 28.026 34.236C26.766 34.236 25.584 33.912 24.48 33.264C23.376 32.616 22.518 31.746 21.906 30.654C21.294 29.562 20.988 28.386 20.988 27.126C20.988 25.866 21.312 24.684 21.96 23.58L28.656 12.204C29.304 11.1 30.174 10.242 31.266 9.63C32.358 9.018 33.534 8.712 34.794 8.712C36.054 8.712 37.236 9.036 38.34 9.684ZM23.508 0.972C24.612 1.62 25.47 2.496 26.082 3.6C26.694 4.704 27 5.886 27 7.146C27 8.406 26.676 9.588 26.028 10.692L13.212 32.508C12.54 33.612 11.658 34.47 10.566 35.082C9.474 35.694 8.298 36 7.038 36C5.778 36 4.596 35.676 3.492 35.028C2.388 34.38 1.53 33.504 0.918 32.4C0.306 31.296 0 30.114 0 28.854C0 27.594 0.324 26.412 0.972 25.308L13.788 3.492C14.46 2.388 15.342 1.53 16.434 0.918003C17.526 0.306004 18.702 0 19.962 0C21.222 0 22.404 0.324001 23.508 0.972Z" fill="#0B5CFF"/>
</svg>
