<svg width="6" height="9" viewBox="0 0 6 9" fill="none" xmlns="http://www.w3.org/2000/svg">
<g clip-path="url(#clip0_130_1925)">
<path d="M2.86957 4.45532C2.86957 4.14347 2.77361 3.87061 2.58171 3.63673C2.42579 3.45082 2.21889 3.30389 1.96102 3.19595C1.76312 3.10599 1.57421 3.05202 1.3943 3.03403L2.91454 1.43283C2.93253 1.62473 2.98651 1.82563 3.07646 2.03553C3.1964 2.31139 3.35532 2.53328 3.55322 2.7012C3.7991 2.91109 4.09295 3.02203 4.43478 3.03403C4.46477 4.11349 4.47676 4.92608 4.47076 5.47181C4.46477 5.87361 4.45277 6.06851 4.43478 6.05652C4.07496 6.03253 3.76912 6.13148 3.51724 6.35337C3.31334 6.52728 3.15142 6.76716 3.03148 7.07301C2.94153 7.3009 2.88756 7.52578 2.86957 7.74767L1.3943 5.96656C1.57421 5.93658 1.76312 5.87061 1.96102 5.76866C2.21889 5.64272 2.42579 5.4838 2.58171 5.2919C2.77361 5.04602 2.86957 4.76716 2.86957 4.45532ZM1.43928 8.99805C1.18141 8.99805 0.941529 8.93058 0.71964 8.79565C0.497751 8.66072 0.322339 8.47781 0.193403 8.24692C0.0644678 8.01604 0 7.76266 0 7.4868C0 7.21094 0.0644678 6.95757 0.193403 6.72668C0.322339 6.4958 0.497751 6.31139 0.71964 6.17346C0.941529 6.03553 1.18141 5.96656 1.43928 5.96656C1.69715 5.96656 1.93553 6.03553 2.15442 6.17346C2.37331 6.31139 2.54723 6.4958 2.67616 6.72668C2.8051 6.95757 2.86957 7.21094 2.86957 7.4868C2.86957 7.76266 2.8051 8.01604 2.67616 8.24692C2.54723 8.47781 2.37331 8.66072 2.15442 8.79565C1.93553 8.93058 1.69715 8.99805 1.43928 8.99805ZM4.56072 6.05652C4.30285 6.05652 4.06297 5.98905 3.84108 5.85412C3.61919 5.71919 3.44378 5.53628 3.31484 5.30539C3.18591 5.07451 3.12144 4.82114 3.12144 4.54527C3.12144 4.26941 3.18591 4.01604 3.31484 3.78515C3.44378 3.55427 3.61919 3.37136 3.84108 3.23643C4.06297 3.1015 4.30285 3.03403 4.56072 3.03403C4.81859 3.03403 5.05847 3.1015 5.28036 3.23643C5.50225 3.37136 5.67766 3.55427 5.8066 3.78515C5.93553 4.01604 6 4.26941 6 4.54527C6 4.82114 5.93553 5.07451 5.8066 5.30539C5.67766 5.53628 5.50225 5.71919 5.28036 5.85412C5.05847 5.98905 4.81859 6.05652 4.56072 6.05652ZM1.52024 3.03403C1.26237 3.03403 1.02249 2.96506 0.8006 2.82713C0.578711 2.6892 0.403298 2.50479 0.274363 2.27391C0.145427 2.04302 0.0809595 1.78965 0.0809595 1.51379C0.0809595 1.23793 0.145427 0.984553 0.274363 0.753669C0.403298 0.522784 0.578711 0.339876 0.8006 0.204944C1.02249 0.0700111 1.26237 0.0025444 1.52024 0.0025444C1.77811 0.0025444 2.01799 0.0700111 2.23988 0.204944C2.46177 0.339876 2.63718 0.522784 2.76612 0.753669C2.89505 0.984553 2.95952 1.23793 2.95952 1.51379C2.95952 1.78965 2.89505 2.04302 2.76612 2.27391C2.63718 2.50479 2.46177 2.6892 2.23988 2.82713C2.01799 2.96506 1.77811 3.03403 1.52024 3.03403Z" fill="white"/>
</g>
<defs>
<clipPath id="clip0_130_1925">
<rect width="6" height="9" fill="white" transform="matrix(1 0 0 -1 0 9)"/>
</clipPath>
</defs>
</svg>
