<svg width="7" height="10" viewBox="0 0 7 10" fill="none" xmlns="http://www.w3.org/2000/svg">
<g clip-path="url(#clip0_148_2209)">
<path d="M3.4752 5.05C3.4752 5.39667 3.58537 5.7 3.8057 5.96C3.97261 6.16 4.19962 6.32333 4.48672 6.45C4.70705 6.55 4.91736 6.61 5.11766 6.63L3.43514 8.41C3.41511 8.20333 3.35168 7.98 3.24486 7.74C3.11132 7.43333 2.93439 7.18667 2.71406 7C2.44032 6.76667 2.11316 6.64333 1.73259 6.63C1.69921 5.42333 1.68586 4.52 1.69253 3.92C1.69921 3.47333 1.71256 3.25667 1.73259 3.27C2.13319 3.29667 2.47704 3.18667 2.76414 2.94C2.99114 2.74667 3.17141 2.48 3.30495 2.14C3.4051 1.88 3.46185 1.63 3.4752 1.39L5.11766 3.37C4.91736 3.40333 4.70705 3.47667 4.48672 3.59C4.19962 3.73 3.97261 3.90667 3.8057 4.12C3.58537 4.39333 3.4752 4.70333 3.4752 5.05ZM5.0776 0C5.3647 0 5.63176 0.0749998 5.8788 0.225C6.12584 0.375 6.32113 0.578334 6.46468 0.835C6.60823 1.09167 6.68 1.37333 6.68 1.68C6.68 1.98667 6.60823 2.26833 6.46468 2.525C6.32113 2.78167 6.12584 2.98667 5.8788 3.14C5.63176 3.29333 5.3647 3.37 5.0776 3.37C4.7905 3.37 4.52344 3.29333 4.2764 3.14C4.02937 2.98667 3.83407 2.78167 3.69052 2.525C3.54698 2.26833 3.4752 1.98667 3.4752 1.68C3.4752 1.37333 3.54698 1.09167 3.69052 0.835C3.83407 0.578334 4.02937 0.375 4.2764 0.225C4.52344 0.0749998 4.7905 0 5.0776 0ZM1.6024 3.27C1.8895 3.27 2.15489 3.345 2.39859 3.495C2.64229 3.645 2.83591 3.84833 2.97946 4.105C3.12301 4.36167 3.19478 4.64333 3.19478 4.95C3.19478 5.25667 3.12301 5.53833 2.97946 5.795C2.83591 6.05167 2.64229 6.255 2.39859 6.405C2.15489 6.555 1.8895 6.63 1.6024 6.63C1.3153 6.63 1.04824 6.555 0.801199 6.405C0.554163 6.255 0.358871 6.05167 0.215322 5.795C0.0717741 5.53833 0 5.25667 0 4.95C0 4.64333 0.0717741 4.36167 0.215322 4.105C0.358871 3.84833 0.554163 3.645 0.801199 3.495C1.04824 3.345 1.3153 3.27 1.6024 3.27ZM4.98747 6.63C5.27456 6.63 5.53996 6.70667 5.78366 6.86C6.02736 7.01333 6.22098 7.21833 6.36453 7.475C6.50808 7.73167 6.57985 8.01333 6.57985 8.32C6.57985 8.62667 6.50808 8.90833 6.36453 9.165C6.22098 9.42167 6.02736 9.625 5.78366 9.775C5.53996 9.925 5.27289 10 4.98246 10C4.69202 10 4.42496 9.925 4.18126 9.775C3.93756 9.625 3.74394 9.42167 3.60039 9.165C3.45684 8.90833 3.38507 8.62667 3.38507 8.32C3.38507 8.01333 3.45684 7.73167 3.60039 7.475C3.74394 7.21833 3.93756 7.01333 4.18126 6.86C4.42496 6.70667 4.69369 6.63 4.98747 6.63Z" fill="white"/>
</g>
<defs>
<clipPath id="clip0_148_2209">
<rect width="6.68" height="10" fill="white" transform="matrix(1 0 0 -1 0 10)"/>
</clipPath>
</defs>
</svg>
