<svg width="7" height="10" viewBox="0 0 7 10" fill="none" xmlns="http://www.w3.org/2000/svg">
<path d="M3.19478 4.95C3.19478 4.60333 3.08796 4.3 2.8743 4.04C2.70071 3.83333 2.47036 3.67 2.18327 3.55C1.96294 3.45 1.75262 3.39 1.55232 3.37L3.24486 1.59C3.26489 1.80333 3.32498 2.02667 3.42513 2.26C3.55866 2.56667 3.73559 2.81333 3.95592 3C4.22967 3.23333 4.55682 3.35667 4.93739 3.37C4.97077 4.57 4.98413 5.47333 4.97745 6.08C4.97077 6.52667 4.95742 6.74333 4.93739 6.73C4.53679 6.70333 4.19628 6.81333 3.91586 7.06C3.68886 7.25333 3.50859 7.52 3.37505 7.86C3.2749 8.11333 3.21481 8.36333 3.19478 8.61L1.55232 6.63C1.75262 6.59667 1.96294 6.52333 2.18327 6.41C2.47036 6.27 2.70071 6.09333 2.8743 5.88C3.08796 5.60667 3.19478 5.29667 3.19478 4.95ZM1.6024 10C1.3153 10 1.04824 9.925 0.801199 9.775C0.554163 9.625 0.358871 9.42167 0.215322 9.165C0.0717741 8.90833 0 8.62667 0 8.32C0 8.01333 0.0717741 7.73167 0.215322 7.475C0.358871 7.21833 0.554163 7.01333 0.801199 6.86C1.04824 6.70667 1.3153 6.63 1.6024 6.63C1.8895 6.63 2.15489 6.70667 2.39859 6.86C2.64229 7.01333 2.83591 7.21833 2.97946 7.475C3.12301 7.73167 3.19478 8.01333 3.19478 8.32C3.19478 8.62667 3.12301 8.90833 2.97946 9.165C2.83591 9.42167 2.64229 9.625 2.39859 9.775C2.15489 9.925 1.8895 10 1.6024 10ZM5.0776 6.73C4.7905 6.73 4.52344 6.655 4.2764 6.505C4.02937 6.355 3.83407 6.15167 3.69052 5.895C3.54698 5.63833 3.4752 5.35667 3.4752 5.05C3.4752 4.74333 3.54698 4.46167 3.69052 4.205C3.83407 3.94833 4.02937 3.745 4.2764 3.595C4.52344 3.445 4.7905 3.37 5.0776 3.37C5.3647 3.37 5.63176 3.445 5.8788 3.595C6.12584 3.745 6.32113 3.94833 6.46468 4.205C6.60823 4.46167 6.68 4.74333 6.68 5.05C6.68 5.35667 6.60823 5.63833 6.46468 5.895C6.32113 6.15167 6.12584 6.355 5.8788 6.505C5.63176 6.655 5.3647 6.73 5.0776 6.73ZM1.69253 3.37C1.40544 3.37 1.13837 3.29333 0.891334 3.14C0.644298 2.98667 0.449005 2.78167 0.305457 2.525C0.161909 2.26833 0.0901349 1.98667 0.0901349 1.68C0.0901349 1.37333 0.161909 1.09167 0.305457 0.835C0.449005 0.578334 0.644298 0.375 0.891334 0.225C1.13837 0.0749998 1.40544 0 1.69253 0C1.97963 0 2.2467 0.0749998 2.49373 0.225C2.74077 0.375 2.93606 0.578334 3.07961 0.835C3.22316 1.09167 3.29493 1.37333 3.29493 1.68C3.29493 1.98667 3.22316 2.26833 3.07961 2.525C2.93606 2.78167 2.74077 2.98667 2.49373 3.14C2.2467 3.29333 1.97963 3.37 1.69253 3.37Z" fill="white"/>
</svg>
