<svg width="8" height="12" viewBox="0 0 8 12" fill="none" xmlns="http://www.w3.org/2000/svg">
<path d="M3.82609 5.93717C3.82609 5.52138 3.69815 5.15756 3.44228 4.84571C3.23438 4.59784 2.95852 4.40194 2.61469 4.25801C2.35082 4.13807 2.09895 4.0661 1.85907 4.04212L3.88606 1.90718C3.91005 2.16306 3.98201 2.43092 4.10195 2.71078C4.26187 3.0786 4.47376 3.37445 4.73763 3.59834C5.06547 3.8782 5.45727 4.02612 5.91304 4.04212C5.95302 5.4814 5.96902 6.56486 5.96102 7.29249C5.95302 7.82822 5.93703 8.08809 5.91304 8.0721C5.43328 8.04012 5.02549 8.17205 4.68966 8.4679C4.41779 8.69979 4.2019 9.01963 4.04198 9.42742C3.92204 9.73127 3.85008 10.0311 3.82609 10.327L1.85907 7.95216C2.09895 7.91218 2.35082 7.82423 2.61469 7.68829C2.95852 7.52038 3.23438 7.30848 3.44228 7.05261C3.69815 6.72478 3.82609 6.35296 3.82609 5.93717ZM1.91904 11.9941C1.57521 11.9941 1.25537 11.9042 0.95952 11.7243C0.663668 11.5444 0.429785 11.3005 0.257871 10.9926C0.085957 10.6848 0 10.347 0 9.97915C0 9.61133 0.085957 9.2735 0.257871 8.96565C0.429785 8.65781 0.663668 8.41193 0.95952 8.22802C1.25537 8.04412 1.57521 7.95216 1.91904 7.95216C2.26287 7.95216 2.58071 8.04412 2.87256 8.22802C3.16442 8.41193 3.3963 8.65781 3.56822 8.96565C3.74013 9.2735 3.82609 9.61133 3.82609 9.97915C3.82609 10.347 3.74013 10.6848 3.56822 10.9926C3.3963 11.3005 3.16442 11.5444 2.87256 11.7243C2.58071 11.9042 2.26287 11.9941 1.91904 11.9941ZM6.08096 8.0721C5.73713 8.0721 5.41729 7.98215 5.12144 7.80224C4.82559 7.62233 4.5917 7.37845 4.41979 7.0706C4.24788 6.76276 4.16192 6.42492 4.16192 6.05711C4.16192 5.68929 4.24788 5.35146 4.41979 5.04362C4.5917 4.73577 4.82559 4.49189 5.12144 4.31198C5.41729 4.13207 5.73713 4.04212 6.08096 4.04212C6.42479 4.04212 6.74463 4.13207 7.04048 4.31198C7.33633 4.49189 7.57022 4.73577 7.74213 5.04362C7.91404 5.35146 8 5.68929 8 6.05711C8 6.42492 7.91404 6.76276 7.74213 7.0706C7.57022 7.37845 7.33633 7.62233 7.04048 7.80224C6.74463 7.98215 6.42479 8.0721 6.08096 8.0721ZM2.02699 4.04212C1.68316 4.04212 1.36332 3.95016 1.06747 3.76625C0.771614 3.58235 0.537731 3.33647 0.365817 3.02862C0.193903 2.72078 0.107946 2.38295 0.107946 2.01513C0.107946 1.64731 0.193903 1.30948 0.365817 1.00164C0.537731 0.69379 0.771614 0.449912 1.06747 0.270002C1.36332 0.0900927 1.68316 0.000137329 2.02699 0.000137329C2.37081 0.000137329 2.69065 0.0900927 2.98651 0.270002C3.28236 0.449912 3.51624 0.69379 3.68816 1.00164C3.86007 1.30948 3.94603 1.64731 3.94603 2.01513C3.94603 2.38295 3.86007 2.72078 3.68816 3.02862C3.51624 3.33647 3.28236 3.58235 2.98651 3.76625C2.69065 3.95016 2.37081 4.04212 2.02699 4.04212Z" fill="white"/>
</svg>
