<svg width="27" height="27" viewBox="0 0 27 27" fill="none" xmlns="http://www.w3.org/2000/svg">
<path d="M26.5345 2.79297H0.465517C0.208552 2.79297 0 3.00106 0 3.25849V23.7413C0 23.9987 0.208552 24.2068 0.465517 24.2068H26.5345C26.7914 24.2068 27 23.9987 27 23.7413V3.25849C27 3.00106 26.7914 2.79297 26.5345 2.79297ZM26.069 23.2758H0.931035V3.72401H26.069V23.2758Z" fill="#333333"/>
<path d="M7.44793 13.099C8.87754 13.099 10.0404 11.9361 10.0404 10.507C10.0404 9.07692 8.87754 7.91406 7.44793 7.91406C6.01833 7.91406 4.85547 9.07692 4.85547 10.5065C4.85547 11.9361 6.01833 13.099 7.44793 13.099ZM7.44793 8.84509C8.36407 8.84509 9.10937 9.59085 9.10937 10.5065C9.10937 11.4222 8.36407 12.168 7.44793 12.168C6.5318 12.168 5.7865 11.4227 5.7865 10.507C5.7865 9.59131 6.5318 8.84509 7.44793 8.84509Z" fill="#333333"/>
<path d="M3.25873 21.4136C3.36766 21.4136 3.47753 21.3755 3.56597 21.2977L11.16 14.612L15.9557 19.4073C16.1377 19.5893 16.4319 19.5893 16.614 19.4073C16.796 19.2252 16.796 18.931 16.614 18.749L14.3762 16.5113L18.6501 11.8309L23.8923 16.6365C24.0818 16.8101 24.3765 16.7971 24.5501 16.6076C24.7237 16.4182 24.7112 16.1235 24.5212 15.9499L18.935 10.8291C18.8438 10.7458 18.7223 10.7044 18.5999 10.7072C18.4765 10.7127 18.3601 10.7672 18.2768 10.8585L13.7175 15.8521L11.5096 13.6442C11.3355 13.4705 11.0571 13.4617 10.8727 13.6237L2.95103 20.5985C2.75784 20.7684 2.73922 21.0626 2.90913 21.2558C3.0013 21.3606 3.12978 21.4136 3.25873 21.4136Z" fill="#333333"/>
</svg>
