<svg width="6" height="9" viewBox="0 0 6 9" fill="none" xmlns="http://www.w3.org/2000/svg">
<path d="M2.871 4.455C2.871 4.143 2.775 3.87 2.583 3.636C2.427 3.45 2.22 3.303 1.962 3.195C1.764 3.105 1.575 3.051 1.395 3.033L2.916 1.431C2.934 1.623 2.988 1.824 3.078 2.034C3.198 2.31 3.357 2.532 3.555 2.7C3.801 2.91 4.095 3.021 4.437 3.033C4.467 4.113 4.479 4.926 4.473 5.472C4.467 5.874 4.455 6.069 4.437 6.057C4.077 6.033 3.771 6.132 3.519 6.354C3.315 6.528 3.153 6.768 3.033 7.074C2.943 7.302 2.889 7.527 2.871 7.749L1.395 5.967C1.575 5.937 1.764 5.871 1.962 5.769C2.22 5.643 2.427 5.484 2.583 5.292C2.775 5.046 2.871 4.767 2.871 4.455ZM1.44 9C1.182 9 0.942 8.9325 0.72 8.7975C0.498 8.6625 0.3225 8.4795 0.1935 8.2485C0.0645 8.0175 0 7.764 0 7.488C0 7.212 0.0645 6.9585 0.1935 6.7275C0.3225 6.4965 0.498 6.312 0.72 6.174C0.942 6.036 1.182 5.967 1.44 5.967C1.698 5.967 1.9365 6.036 2.1555 6.174C2.3745 6.312 2.5485 6.4965 2.6775 6.7275C2.8065 6.9585 2.871 7.212 2.871 7.488C2.871 7.764 2.8065 8.0175 2.6775 8.2485C2.5485 8.4795 2.3745 8.6625 2.1555 8.7975C1.9365 8.9325 1.698 9 1.44 9ZM4.563 6.057C4.305 6.057 4.065 5.9895 3.843 5.8545C3.621 5.7195 3.4455 5.5365 3.3165 5.3055C3.1875 5.0745 3.123 4.821 3.123 4.545C3.123 4.269 3.1875 4.0155 3.3165 3.7845C3.4455 3.5535 3.621 3.3705 3.843 3.2355C4.065 3.1005 4.305 3.033 4.563 3.033C4.821 3.033 5.061 3.1005 5.283 3.2355C5.505 3.3705 5.6805 3.5535 5.8095 3.7845C5.9385 4.0155 6.003 4.269 6.003 4.545C6.003 4.821 5.9385 5.0745 5.8095 5.3055C5.6805 5.5365 5.505 5.7195 5.283 5.8545C5.061 5.9895 4.821 6.057 4.563 6.057ZM1.521 3.033C1.263 3.033 1.023 2.964 0.801 2.826C0.579 2.688 0.4035 2.5035 0.2745 2.2725C0.1455 2.0415 0.081 1.788 0.081 1.512C0.081 1.236 0.1455 0.9825 0.2745 0.7515C0.4035 0.5205 0.579 0.337501 0.801 0.2025C1.023 0.0675001 1.263 0 1.521 0C1.779 0 2.019 0.0675001 2.241 0.2025C2.463 0.337501 2.6385 0.5205 2.7675 0.7515C2.8965 0.9825 2.961 1.236 2.961 1.512C2.961 1.788 2.8965 2.0415 2.7675 2.2725C2.6385 2.5035 2.463 2.688 2.241 2.826C2.019 2.964 1.779 3.033 1.521 3.033Z" fill="#333333"/>
</svg>
