<svg width="257" height="187" viewBox="0 0 257 187" fill="none" xmlns="http://www.w3.org/2000/svg">
<g clip-path="url(#clip0_421_1349)">
<path d="M226.825 155.536C225.339 160.959 223.917 166.642 222.431 172.904C222.043 174.517 221.85 176.261 221.591 178.069C221.268 180.716 220.945 183.493 220.04 185.881H219.394C220.363 183.428 220.686 180.716 221.009 178.004C221.203 176.132 221.462 174.389 221.85 172.775C223.336 166.512 224.822 160.83 226.243 155.406C226.696 153.664 227.86 151.21 229.217 148.369C233.029 140.363 238.199 129.452 231.737 125.772C229.734 124.609 227.148 124.868 224.434 125.19C223.788 125.256 223.207 125.32 222.56 125.384C221.397 125.449 220.492 125.513 219.652 125.384C214.224 124.932 206.727 124.287 200.007 122.349C197.293 121.575 194.707 120.541 192.252 119.315C182.106 114.15 175.45 106.338 174.546 98.3963C174.288 96.0073 174.481 93.5539 174.674 91.2296C174.998 87.0328 175.386 83.0944 173.124 79.156C170.604 74.701 165.175 71.7956 160.329 69.4713C151.281 65.0809 139.649 59.0118 129.374 51.4578C126.596 49.3916 124.14 47.1319 121.749 44.9367C119.875 43.2581 117.936 41.4503 115.868 39.7716C113.994 38.222 111.797 36.8661 109.665 35.5748C107.855 34.4773 106.046 33.3151 104.365 32.0884C102.815 30.9262 101.457 29.6349 100.165 28.4081C97.4509 25.8256 94.9306 23.4367 90.7947 22.0808C87.1113 20.8541 83.4924 19.3691 79.3565 17.4967C76.4485 16.1409 73.5405 14.6559 70.4387 13.1064L68.6938 12.2024C62.7486 9.16788 57.7727 7.55377 53.1844 7.23095C48.5316 6.84356 43.7495 7.74747 39.2259 8.71594L38.192 8.97418C34.0561 9.87809 30.1787 10.782 26.1721 10.4592C23.6519 10.2654 21.2609 9.55528 18.8698 8.84507C15.9618 8.00573 12.9891 7.16639 9.75802 7.16639C5.55755 7.23095 2.64953 8.52225 0 10.4592L6.21338e-08 9.74896C2.64953 7.87659 5.55755 6.64987 9.75802 6.5853C13.0537 6.52074 16.0911 7.42463 18.999 8.26398C21.3254 8.90961 23.7165 9.61982 26.1721 9.87808C30.0495 10.2009 33.9269 9.36158 37.9981 8.45767L39.0321 8.19943C43.5556 7.23095 48.4023 6.32704 53.1844 6.71443C57.9018 7.10181 62.8778 8.71594 68.8877 11.7504L70.6325 12.6544C73.7344 14.2039 76.6424 15.6889 79.5505 17.0448C83.6216 18.9171 87.2405 20.3376 90.924 21.5643C95.1891 22.9847 97.774 25.4382 100.488 28.0208C101.781 29.2475 103.138 30.5388 104.624 31.6364C106.239 32.8631 108.113 34.0253 109.858 35.1229C111.991 36.4141 114.188 37.7701 116.127 39.3841C118.195 41.0628 120.133 42.8061 122.007 44.5493C124.398 46.7445 126.789 48.9397 129.568 51.0058C139.778 58.5598 151.476 64.5643 160.458 68.9548C165.369 71.3436 170.862 74.3136 173.512 78.8978C175.838 82.9653 175.45 87.162 175.127 91.2941C174.933 93.6185 174.74 96.0073 174.998 98.3963C175.903 106.144 182.43 113.763 192.446 118.863C194.837 120.089 197.357 121.059 200.072 121.833C206.792 123.705 214.159 124.352 219.588 124.804C220.428 124.868 221.333 124.868 222.431 124.804C223.077 124.738 223.659 124.674 224.305 124.609C227.084 124.287 229.734 124.028 231.93 125.256C238.845 129.194 233.546 140.428 229.669 148.563C228.441 151.468 227.277 153.857 226.825 155.536Z" fill="#92B6FF"/>
<path d="M205.758 154.826C204.595 158.57 203.367 162.574 201.881 167.803C201.493 169.03 201.234 170.322 200.976 171.678C200.33 174.776 199.684 178.004 197.745 180.588C196.129 182.782 194.062 184.074 192.252 185.106C191.606 185.429 190.959 185.688 190.378 185.881H188.633C189.021 185.753 189.344 185.623 189.732 185.494C190.507 185.236 191.218 184.977 191.993 184.59C193.738 183.622 195.807 182.33 197.293 180.264C199.102 177.747 199.748 174.647 200.395 171.548C200.653 170.256 200.976 168.836 201.299 167.61C202.786 162.38 204.013 158.377 205.177 154.632C205.629 153.083 206.663 151.081 207.827 148.757C210.67 143.075 214.223 136.038 211.704 132.422C210.604 130.873 209.118 130.292 206.986 129.645H206.922C206.339 129.452 205.694 129.258 205.112 129.065C202.721 128.29 199.943 127.709 196.969 127.063C194.902 126.611 192.769 126.159 190.766 125.643C188.504 125.061 186.565 124.416 184.82 123.705C177.065 120.542 171.185 116.475 168.278 112.342C167.373 111.115 166.726 109.825 166.145 108.598C164.981 106.402 163.947 104.272 161.556 102.205C158.906 99.8814 154.9 98.1381 150.958 96.5885C138.486 91.7462 128.729 85.8708 121.814 79.2207C119.423 76.8963 117.807 74.2492 116.192 71.6665C114.964 69.665 113.671 67.599 112.056 65.662C110.569 63.9188 108.566 62.563 106.563 61.2072C104.882 60.1095 103.202 58.9473 101.845 57.5269C100.488 56.171 99.6479 54.6215 98.7432 53.072C97.1276 50.1665 95.5767 47.3903 91.053 46.7446C86.788 46.1635 83.1691 45.3242 79.6149 44.0975C76.3191 42.9999 72.9588 41.3857 69.3399 39.2551C64.2347 36.2205 59.905 33.9608 55.3167 32.7341C50.987 31.572 46.6573 31.3782 42.1338 32.0885C40.0012 32.4113 37.8686 32.9923 35.8008 33.5088C33.9267 34.0253 31.9234 34.4773 30.0493 34.8001C24.4918 35.7686 19.322 35.4458 14.1522 34.9938C12.7951 34.8647 11.5027 34.7356 10.2748 34.6065C6.46209 34.1545 3.36021 33.8317 0.0644531 34.6065L0.0644532 34.0253C3.42483 33.2506 6.59133 33.5735 10.3395 34.0253C11.5673 34.1545 12.7951 34.2837 14.2168 34.4128C19.3866 34.8647 24.4271 35.1875 29.9847 34.219C31.8588 33.8963 33.7328 33.4443 35.7362 32.9278C37.8041 32.4113 39.9366 31.8302 42.1338 31.5073C46.7866 30.7326 51.181 30.9908 55.5753 32.153C60.2281 33.4443 64.6224 35.704 69.7276 38.7386C73.2819 40.8692 76.5776 42.4188 79.8734 43.5163C83.363 44.6785 86.9173 45.5179 91.1823 46.099C96.029 46.7446 97.6446 49.65 99.3247 52.6845C100.165 54.1695 101.005 55.7191 102.298 57.0104C103.589 58.3662 105.205 59.4638 106.951 60.626C108.954 61.9819 110.957 63.4023 112.508 65.2102C114.188 67.147 115.48 69.2132 116.709 71.2792C118.259 73.7972 119.94 76.4444 122.266 78.7042C129.115 85.3543 138.809 91.1005 151.217 95.9429C155.223 97.4924 159.23 99.2357 162.009 101.689C164.464 103.885 165.628 106.144 166.726 108.275C167.373 109.502 167.954 110.728 168.859 111.955C171.638 115.958 177.583 120.025 185.144 123.124C186.823 123.835 188.763 124.416 190.959 124.997C192.963 125.513 195.095 125.965 197.164 126.417C200.136 127.063 202.915 127.644 205.37 128.419C206.017 128.613 206.598 128.806 207.18 129H207.244C209.442 129.71 211.122 130.292 212.285 131.97C214.999 135.843 211.38 143.075 208.472 148.821C207.244 151.34 206.275 153.341 205.758 154.826Z" fill="#92B6FF"/>
<path d="M184.691 154.117C182.752 159.153 180.813 164.125 178.875 169.096C177.453 172.647 176.096 176.199 174.674 179.749C173.834 182.009 172.929 184.075 171.831 185.882H171.184C172.348 184.01 173.253 181.88 174.158 179.556C175.515 176.004 176.936 172.453 178.358 168.902C180.297 163.931 182.235 158.894 184.174 153.924C184.82 152.309 185.983 150.372 187.211 148.371C190.184 143.464 193.545 137.975 191.412 133.909C189.602 130.486 182.882 129.196 178.939 128.42C178.422 128.292 177.97 128.226 177.518 128.162C172.025 127 166.274 126.612 160.716 126.16C154.383 125.709 147.856 125.192 141.717 123.643C130.279 120.737 120.327 114.668 114.447 106.921C112.443 104.338 111.668 101.304 110.827 98.3331C110.181 96.0088 109.535 93.6198 108.371 91.4893C107.273 89.5523 105.399 88.1319 103.589 86.776C102.039 85.6138 100.488 84.4517 99.3891 82.9022C98.2905 81.3526 97.9028 79.4157 97.5151 77.6078C96.8688 74.186 96.2872 71.2805 91.3112 71.4097C83.4919 71.668 77.4174 71.4096 70.0504 66.3736C69.275 65.7925 68.4349 65.276 67.6594 64.695C60.6154 59.788 53.3778 54.6874 45.1061 55.5268C41.164 55.9141 37.416 57.722 33.7325 59.4006C28.8858 61.6603 23.8452 64.0493 18.4816 63.0163C15.5735 62.4351 12.7948 60.8856 10.2098 59.4006C6.84948 57.4637 3.61836 55.6558 0.193359 55.8496V55.2685C3.81223 55.0748 7.23723 57.0118 10.533 58.8841C13.1179 60.3691 15.832 61.9186 18.6754 62.4351C23.8452 63.4036 28.5627 61.2085 33.5387 58.8841C37.2221 57.1408 41.0349 55.333 45.1061 54.9457C53.6363 54.1063 61.0033 59.2715 68.1118 64.243C68.8872 64.824 69.7273 65.3406 70.5028 65.9217C77.7405 70.8931 83.7504 71.0868 91.4405 70.8931C96.8688 70.6995 97.515 74.186 98.2259 77.5433C98.549 79.3511 98.9367 81.159 99.9706 82.6439C101.005 84.0643 102.491 85.2265 104.042 86.3887C105.916 87.7445 107.79 89.2295 108.953 91.2955C110.181 93.4908 110.827 95.8797 111.473 98.2685C112.249 101.174 113.089 104.144 114.963 106.662C120.779 114.346 130.602 120.349 141.911 123.191C147.986 124.74 154.512 125.192 160.845 125.644C166.467 126.032 172.219 126.484 177.712 127.645C178.164 127.71 178.616 127.84 179.134 127.904C183.463 128.744 190.055 130.034 192.058 133.714C194.384 138.041 190.895 143.722 187.857 148.693C186.5 150.631 185.337 152.568 184.691 154.117Z" fill="#92B6FF"/>
<path d="M146.176 170.063C145.336 172.065 144.431 174.26 143.267 176.649C142.105 179.232 140.618 182.137 138.357 184.203C137.904 184.591 137.516 184.977 137.064 185.301C136.74 185.559 136.418 185.753 136.03 185.946H134.866C135.513 185.624 136.159 185.236 136.676 184.849C137.128 184.526 137.516 184.203 137.904 183.816C140.102 181.749 141.523 178.908 142.686 176.391C143.85 174.002 144.754 171.807 145.594 169.805L145.788 169.418C147.727 164.575 149.73 159.54 149.795 154.955C149.795 151.598 149.472 149.403 149.084 146.239C148.825 144.173 148.244 141.849 146.37 139.911C145.142 138.685 143.203 137.652 140.683 137.006C138.938 136.554 137.193 136.167 135.449 135.78C133.897 135.457 132.476 135.134 131.248 134.812C128.792 134.165 126.401 133.52 124.075 132.745C121.555 131.905 119.939 130.614 118.711 129.646C118.453 129.452 118.259 129.259 118 129.129C117.16 128.484 116.514 128.161 115.803 127.839C115.545 127.709 115.221 127.58 114.963 127.387C114.447 127.128 114.059 126.676 113.606 126.224C113.089 125.708 112.443 125.062 111.538 124.352C109.858 123.125 107.854 121.898 105.787 120.542C100.94 117.507 95.5117 114.021 91.4405 109.63C90.2127 108.275 89.3726 106.79 88.7264 105.564C88.4032 104.982 88.1447 104.401 87.8216 103.756C86.9815 102.077 86.2061 100.463 85.0429 99.0422C84.0088 97.751 82.3934 96.8471 80.8423 96.0077C79.6146 95.2975 78.3221 94.5874 77.3527 93.6834C76.3188 92.7149 75.8664 91.5527 75.3494 90.3906C74.4448 88.26 73.6693 86.4522 69.8565 86.7104C63.6528 87.1624 58.4183 87.2269 52.473 83.9987C51.3098 83.3531 50.082 82.6429 48.8542 81.9972C46.2693 80.5122 43.5551 78.9627 40.841 77.7359C37.5453 76.2509 34.831 75.4762 32.1815 75.4116C29.209 75.2825 26.3655 75.9927 23.6514 76.7029C19.9033 77.6714 16.0259 78.6399 11.89 77.4131C10.9207 77.1549 9.88675 76.7029 8.72354 76.1219C7.7542 75.6053 6.78487 75.0888 5.88015 74.5077C3.94147 73.4101 2.13204 72.3125 0.193359 71.7314V71.1504C2.26128 71.7314 4.19996 72.8936 6.13864 73.9912C7.04335 74.5077 8.0127 75.0888 8.98203 75.5407C10.1453 76.1219 11.1146 76.5092 12.0193 76.832C16.0259 77.9942 19.6448 77.0903 23.4575 76.1219C26.2363 75.4116 29.1443 74.7014 32.1815 74.8305C34.8957 74.9597 37.6744 75.6699 41.0349 77.2194C43.8136 78.4462 46.5278 79.9957 49.1126 81.5452C50.2758 82.1909 51.5037 82.9011 52.6669 83.5467C58.483 86.7104 63.5881 86.6459 69.7272 86.1939C73.8631 85.8711 74.8325 88.0662 75.7372 90.1969C76.1895 91.2945 76.7065 92.3921 77.6113 93.296C78.5159 94.1354 79.7438 94.8456 80.9716 95.5558C82.5872 96.4597 84.2028 97.3636 85.366 98.7194C86.5938 100.204 87.4339 101.883 88.2094 103.561C88.4678 104.143 88.7909 104.724 89.1141 105.305C89.7603 106.532 90.5358 107.952 91.7636 109.244C95.7056 113.569 101.198 117.055 105.98 120.09C108.049 121.382 110.052 122.673 111.732 123.9C112.702 124.61 113.347 125.256 113.864 125.836C114.317 126.288 114.705 126.676 115.092 126.935C115.35 127.063 115.609 127.192 115.933 127.387C116.643 127.709 117.29 128.096 118.195 128.742C118.388 128.871 118.647 129.065 118.905 129.323C120.069 130.227 121.619 131.518 124.075 132.293C126.401 133.068 128.792 133.713 131.248 134.36C132.476 134.682 133.897 135.005 135.449 135.328C137.193 135.715 139.002 136.102 140.683 136.554C143.267 137.265 145.336 138.298 146.628 139.589C148.631 141.59 149.213 144.043 149.536 146.239C149.989 149.403 150.247 151.663 150.247 155.02C150.247 159.733 148.179 164.769 146.241 169.741L146.176 170.063Z" fill="#92B6FF"/>
<path d="M111.797 173.549C110.828 175.164 109.341 177.488 107.273 179.425C106.951 179.747 106.563 180.07 106.239 180.329C105.593 180.845 104.882 181.297 104.172 181.749C103.331 182.266 102.491 182.846 101.715 183.492C100.812 184.267 100.1 185.106 99.454 185.946H98.7432C99.454 184.912 100.294 183.944 101.328 183.04C102.103 182.394 103.008 181.814 103.848 181.233C104.494 180.781 105.205 180.329 105.851 179.812C106.175 179.554 106.563 179.231 106.886 178.973C108.889 177.101 110.375 174.841 111.28 173.226C112.378 171.354 113.283 169.676 113.93 168.061C115.416 164.51 116.838 159.474 115.351 155.987C114.318 153.663 112.508 152.889 110.569 152.114C109.535 151.662 108.437 151.274 107.467 150.564C106.756 150.048 106.11 149.531 105.334 148.95C104.107 147.981 102.75 146.884 101.198 145.98C99.3247 144.947 97.1276 144.172 94.8012 143.785C91.3761 143.204 87.8219 142.623 84.914 141.719C82.1998 140.88 79.8088 139.847 77.6762 138.684C74.639 137.005 74.2512 133.648 75.1559 131.97C75.8668 130.678 76.9654 130.097 78.0639 129.581C78.3224 129.451 78.5809 129.322 78.8394 129.194C80.5842 128.225 81.3597 126.934 81.3597 125.19C79.0333 121.381 72.9588 116.216 68.5644 112.6C67.7243 111.89 67.0135 111.244 66.3027 110.599L65.721 110.082C64.4285 108.92 63.2653 107.758 61.779 106.919C60.6805 106.272 59.2587 105.886 57.9017 105.563C56.9323 105.304 56.0922 105.111 55.2521 104.788C54.4121 104.465 53.7658 104.013 53.1843 103.561C51.9564 102.722 50.9224 101.947 48.2729 102.334C43.6201 103.045 39.355 103.496 34.8314 101.947C32.1819 101.043 29.2739 99.8809 25.4612 98.1377C23.264 97.1046 21.196 96.1362 19.1927 95.555C17.254 94.974 15.38 94.6512 13.5706 94.3929C10.921 94.0055 8.2069 93.5535 5.16963 92.1332C4.32955 91.7457 3.55407 91.2938 2.90784 90.9064C2.58474 90.7127 2.26162 90.519 1.93851 90.3253C1.29228 89.9379 0.710679 89.6151 0.0644531 89.2277V88.582C0.775301 88.9695 1.48615 89.4214 2.19699 89.8088C2.52011 90.0025 2.84322 90.1962 3.16634 90.3899C3.81257 90.7773 4.58803 91.2292 5.36351 91.6166C8.27152 93.037 10.8564 93.4244 13.5706 93.8118C15.38 94.07 17.254 94.3929 19.2573 94.974C21.3253 95.6197 23.4579 96.588 25.655 97.6212C29.4678 99.3644 32.3111 100.526 34.9607 101.43C39.4196 102.915 43.4262 102.463 48.1436 101.754C51.0517 101.302 52.2149 102.205 53.5074 103.109C54.0889 103.496 54.6706 103.948 55.446 104.271C56.2215 104.594 57.0616 104.788 57.9663 105.046C59.388 105.434 60.8097 105.756 61.9729 106.467C63.5239 107.371 64.7517 108.532 66.0441 109.759L66.6257 110.276C67.3366 110.921 67.9828 111.567 68.8229 112.277C73.2819 115.893 79.4856 121.188 81.8121 125.061L81.8766 125.126V125.19C81.9413 127.191 81.0365 128.677 79.0979 129.774C78.8394 129.903 78.5809 130.033 78.3224 130.162C77.2885 130.678 76.2545 131.195 75.6729 132.357C74.8974 133.842 75.2205 136.812 77.9347 138.361C80.0026 139.524 82.329 140.492 85.0431 141.332C87.9512 142.236 91.5054 142.816 94.8658 143.397C97.2569 143.785 99.5186 144.56 101.457 145.657C103.072 146.561 104.43 147.658 105.658 148.627C106.368 149.209 107.015 149.725 107.725 150.177C108.63 150.822 109.729 151.274 110.699 151.662C112.702 152.501 114.705 153.341 115.804 155.858C117.419 159.539 115.933 164.639 114.382 168.32C113.8 169.933 112.961 171.677 111.797 173.549Z" fill="#92B6FF"/>
<path d="M76.2542 174.583C71.5367 178.973 66.2376 184.009 59.3231 185.817C59.1938 185.881 58.9999 185.881 58.8707 185.946H55.9627C57.0612 185.753 58.1598 185.558 59.1938 185.301C65.9145 183.493 71.2136 178.521 75.8664 174.195C78.2575 171.935 80.9716 169.418 82.3287 166.318C83.5565 163.542 83.6211 159.474 81.0362 157.086C78.5806 154.826 75.091 154.891 71.3428 154.955C69.5334 155.02 67.6594 155.02 65.9145 154.761C63.1358 154.374 60.6155 153.535 58.1598 152.76C55.1225 151.792 52.2791 150.823 49.048 150.629C41.358 150.113 35.9297 148.24 31.4707 144.69C30.3722 143.786 29.7259 142.43 29.7259 140.88C29.7259 138.75 30.8891 136.49 32.6339 135.134C35.025 133.261 38.0622 132.616 41.0349 131.905C41.6811 131.777 42.2627 131.648 42.9089 131.453C47.4971 130.292 50.2758 128.548 51.439 125.965C52.4731 123.641 51.7622 121.511 50.9868 120.155C49.4358 117.443 46.3985 115.312 43.232 114.796C38.3207 113.957 33.3447 115.635 28.5627 117.25C28.0457 117.443 27.4641 117.636 26.9471 117.766C21.9712 119.444 15.5735 120.994 10.3391 118.411C7.10797 116.862 4.91081 114.021 2.71364 111.31C1.93817 110.277 1.09808 109.243 0.193359 108.275V107.436C1.22733 108.533 2.19666 109.76 3.166 110.986C5.36316 113.763 7.43109 116.41 10.533 117.959C15.6382 120.413 21.8419 118.928 26.6886 117.314C27.2057 117.12 27.7872 116.927 28.3042 116.798C33.1509 115.183 38.1915 113.44 43.232 114.279C46.5924 114.86 49.7589 117.055 51.3745 119.896C52.5377 122.027 52.7315 124.223 51.8914 126.224C50.6636 129 47.7556 130.873 42.9735 132.034C42.3272 132.164 41.7457 132.357 41.0995 132.486C38.1915 133.133 35.2188 133.842 32.957 135.586C31.3414 136.813 30.3075 138.943 30.3075 140.88C30.3075 141.849 30.566 143.269 31.7938 144.238C36.1882 147.724 41.5518 149.532 49.048 150.113C52.4084 150.371 55.3811 151.34 58.3537 152.308C60.8094 153.083 63.3296 153.922 66.0438 154.309C67.7239 154.568 69.5981 154.503 71.3428 154.503C75.0263 154.439 78.7744 154.374 81.424 156.763C84.2027 159.345 84.1381 163.607 82.8456 166.642C81.424 169.74 78.7098 172.323 76.2542 174.583Z" fill="#92B6FF"/>
<g opacity="0.4">
<path d="M255.841 185.946C255.065 179.425 253.903 172.904 251.963 166.642C246.923 150.565 237.294 138.233 224.757 131.97C216.873 128.032 207.891 126.482 199.231 125.061C195.095 124.352 190.766 123.641 186.63 122.673C170.733 118.863 159.682 110.341 157.162 99.7522C156.193 95.8139 156.322 91.5525 156.516 87.4204C156.71 80.7057 156.968 74.3138 152.703 69.4715C148.891 65.081 142.428 63.3378 136.225 61.6592C128.212 59.4639 120.586 57.3979 119.229 50.0375C118.454 45.9699 120.328 42.1606 122.136 38.4158C123.559 35.4459 125.045 32.4113 125.239 29.2477C125.885 18.4008 112.637 12.3317 101.07 10.4593L100.812 10.3948C91.3118 8.84524 79.8736 6.97287 74.0576 0.0644531H74.8331C80.6491 6.52092 91.7642 8.32874 100.941 9.81371L101.199 9.87827C112.961 11.8152 126.467 18.078 125.82 29.2477C125.626 32.5405 124.14 35.6395 122.654 38.6095C120.845 42.4188 119.1 45.9699 119.81 49.8438C121.167 56.8813 128.534 58.8828 136.418 61.0135C142.752 62.7567 149.278 64.5 153.156 69.0195C157.55 74.0555 157.291 80.512 157.098 87.3559C156.968 91.4234 156.839 95.6847 157.744 99.5586C160.264 109.889 171.121 118.347 186.824 122.027C190.959 122.996 195.225 123.705 199.426 124.416C208.149 125.901 217.197 127.45 225.145 131.389C237.811 137.717 247.569 150.177 252.61 166.383C254.613 172.775 255.777 179.296 256.551 185.881H255.841V185.946Z" fill="#92B6FF"/>
<path d="M211.962 185.946H211.38C211.444 184.978 211.51 184.074 211.574 183.17C211.703 181.556 211.896 179.877 211.896 178.199C211.896 171.871 210.605 165.931 208.148 160.573C203.043 149.532 195.871 140.493 187.405 134.488C186.565 133.907 185.725 133.326 184.82 132.809C179.262 129.323 173.382 127.063 167.76 124.932C164.529 123.706 161.168 122.415 158.002 120.93C155.869 119.896 153.802 118.799 151.862 117.572C144.302 112.73 139.584 106.596 138.163 99.7524C137.517 96.5241 137.581 93.0376 137.71 89.6803C137.839 84.1923 137.969 78.9626 135.125 74.7659C132.605 71.0211 128.34 68.9551 124.269 66.9536C120.456 65.0812 116.837 63.3379 114.639 60.3034C113.606 58.9476 113.024 57.4626 112.701 55.7839C112.184 52.6847 113.218 49.7794 114.253 46.9385C115.222 44.1622 116.127 41.5796 115.739 38.8679C114.639 31.0556 105.14 28.9896 99.5828 28.473C95.8993 28.1502 91.8927 28.2794 88.1447 28.5376C85.4951 28.7312 81.4885 28.8604 77.4173 28.2147C68.6286 26.7297 61.4555 21.952 57.3196 14.8499C55.8333 12.2672 54.864 9.62014 53.9593 7.03754C53.1838 4.84235 52.4084 2.77628 51.3743 0.839343C51.2452 0.581082 51.0512 0.258261 50.8574 0L51.5036 5.61164e-08C51.6329 0.1937 51.7621 0.387383 51.8267 0.581083C52.8607 2.51801 53.6362 4.64866 54.4117 6.84386C55.3163 9.36189 56.2857 12.009 57.7073 14.5271C61.714 21.5 68.6933 26.1487 77.3527 27.6337C81.3593 28.2794 85.3013 28.1502 87.9507 27.9565C91.6989 27.6982 95.7055 27.5046 99.4536 27.8919C105.205 28.4084 114.963 30.5391 116.127 38.7388C116.514 41.5796 115.544 44.3559 114.575 47.0676C113.606 49.8439 112.572 52.7494 113.089 55.6547C113.348 57.2689 113.929 58.6893 114.898 59.9161C117.031 62.8214 120.585 64.5646 124.333 66.3724C128.533 68.4386 132.798 70.5046 135.448 74.3784C138.356 78.7043 138.227 84.2569 138.098 89.6158C138.034 92.9731 137.904 96.3951 138.55 99.5587C139.908 106.209 144.496 112.278 151.992 116.991C153.866 118.218 155.934 119.315 158.067 120.284C161.233 121.769 164.399 122.996 167.825 124.223C173.511 126.353 179.392 128.613 185.014 132.164C185.854 132.681 186.758 133.261 187.599 133.907C196.129 139.977 203.367 149.08 208.536 160.185C211.057 165.609 212.349 171.613 212.349 178.069C212.349 179.812 212.22 181.492 212.026 183.105C212.091 184.138 212.026 185.042 211.962 185.946Z" fill="#92B6FF"/>
<path d="M167.761 177.81C167.373 179.36 166.92 180.91 166.727 182.523C166.597 183.75 166.597 184.848 166.727 185.946H166.144C166.016 184.848 166.016 183.686 166.144 182.459C166.339 180.781 166.791 179.231 167.179 177.681C167.632 176.132 168.02 174.518 168.213 172.904C168.989 165.931 167.696 159.732 164.336 154.502C159.295 146.754 152.251 140.105 146.694 135.198C146.112 134.682 145.53 134.164 144.884 133.648C143.851 132.744 142.816 131.84 141.782 130.936C137.065 126.869 132.993 123.318 129.31 119.25C128.212 118.024 127.178 116.732 126.209 115.441C122.266 110.211 119.94 105.111 119.294 99.8809C118.97 97.3629 118.97 94.6512 119.035 92.0686C119.099 87.8074 119.099 83.7397 117.678 80.1887C116.386 77.025 114.318 74.7007 112.315 72.3764C110.311 70.1812 108.502 68.0505 107.338 65.2742C106.821 64.0475 106.498 62.8854 106.369 61.6586C106.11 59.6572 106.369 57.6556 106.692 55.7187C107.08 53.2007 107.403 50.7472 106.498 48.4874C103.849 41.7727 94.3493 41.4499 86.9824 43.1932C84.7205 43.7097 82.3941 44.4844 80.1323 45.1947C78.5814 45.7112 77.0305 46.1631 75.4795 46.615C71.279 47.8418 67.7248 48.2292 64.2998 47.8418C56.6743 47.0024 50.0182 42.4829 43.4266 33.7021C42.522 32.4754 41.6819 31.3132 40.8418 30.0865C38.5154 26.7292 36.2536 23.5655 33.3456 21.3057C32.5701 20.7246 31.6654 20.1435 30.6314 19.5625C28.4989 18.4003 26.2371 17.6255 24.0399 16.9798C14.9927 14.2036 7.04416 12.654 0.258789 12.2667V11.6855C7.10878 12.073 15.122 13.6225 24.1692 16.3988C26.3663 17.109 28.7573 17.8838 30.8899 19.046C31.9885 19.627 32.8932 20.2082 33.6687 20.8538C36.6414 23.178 38.9031 26.3417 41.2942 29.7637C42.1343 30.9258 42.9744 32.1525 43.879 33.3147C50.3413 41.9664 56.8682 46.3568 64.3644 47.1962C67.7248 47.5835 71.1497 47.1962 75.2856 45.9694C76.8365 45.5175 78.4521 45.0009 79.9384 44.549C82.2003 43.8388 84.5267 43.064 86.7884 42.5475C94.3493 40.7397 104.172 41.127 106.95 48.1646C107.92 50.5535 107.533 53.007 107.209 55.6541C106.95 57.5265 106.692 59.4634 106.886 61.4649C107.015 62.6917 107.338 63.7892 107.855 64.9514C109.019 67.6632 110.828 69.6647 112.767 71.8599C114.834 74.1842 116.967 76.573 118.26 79.8012C119.746 83.4815 119.682 87.7427 119.682 91.8749C119.682 94.4574 119.616 97.1046 119.94 99.6226C120.651 104.723 122.847 109.759 126.79 114.924C127.759 116.216 128.793 117.507 129.892 118.669C133.51 122.737 137.582 126.287 142.299 130.355C143.333 131.195 144.367 132.099 145.401 133.067C145.983 133.583 146.564 134.1 147.211 134.616C152.768 139.524 159.877 146.238 164.982 154.051C168.471 159.344 169.764 165.672 168.989 172.774C168.665 174.646 168.213 176.261 167.761 177.81Z" fill="#92B6FF"/>
<path d="M123.364 172.646C122.653 174.26 121.943 175.874 121.555 177.617C121.038 180.329 121.555 182.912 122.976 184.655C123.364 185.172 123.817 185.558 124.334 185.946H123.429C123.105 185.624 122.783 185.365 122.524 184.977C120.973 183.105 120.457 180.393 121.038 177.488C121.426 175.68 122.136 174.002 122.847 172.387C123.558 170.838 124.269 169.224 124.657 167.546C126.402 159.54 125.045 153.083 120.586 148.434C118.647 146.368 116.256 144.625 113.994 142.946C111.151 140.815 108.178 138.685 105.981 135.844C101.263 129.71 100.746 121.963 100.617 113.182L99.9064 70.2463C99.8417 65.5331 99.5833 61.4009 96.9983 58.2373C91.9578 51.9746 81.6182 53.7824 74.1219 58.0436C72.6357 58.8829 71.1493 59.7869 69.7276 60.6908C63.9116 64.3064 57.8371 68.1157 50.987 67.7283C42.5215 67.2764 36.8994 61.1427 30.9541 54.6217C26.3013 49.5211 21.4546 44.2268 15.0569 41.9671C11.1796 40.6111 6.91445 40.4174 2.84323 40.2883C1.93851 40.2883 1.03379 40.2237 0.0644531 40.1592L0.0644532 39.5781C1.03379 39.6427 1.93851 39.7072 2.84323 39.7072C6.97907 39.8364 11.2441 40.0301 15.2507 41.3859C21.7777 43.7103 26.6244 49.0046 31.3418 54.1697C37.2224 60.5616 42.7154 66.5661 50.987 67.0826C57.6431 67.4701 63.6531 63.7253 69.4045 60.1743C70.8262 59.2703 72.3125 58.3664 73.7989 57.5271C81.4889 53.1367 92.2162 51.3289 97.4507 57.8499C100.294 61.401 100.424 66.5016 100.488 70.2463L101.198 113.182C101.328 121.898 101.845 129.581 106.434 135.521C108.566 138.298 111.473 140.428 114.318 142.559C116.644 144.238 118.97 145.98 120.973 148.111C125.562 152.953 126.919 159.54 125.174 167.739C124.85 169.418 124.076 171.032 123.364 172.646Z" fill="#92B6FF"/>
<path d="M103.784 185.947C102.491 183.623 100.876 181.556 98.8722 179.942C98.6784 179.813 98.4845 179.619 98.2907 179.49C97.3213 178.78 96.352 178.006 95.7057 176.907C95.2533 176.198 94.9949 175.422 94.8011 174.519C94.6072 173.486 94.6718 172.324 94.8656 171.161C95.1242 169.87 95.6411 168.579 96.0934 167.352C96.6105 166.061 97.0628 164.769 97.3213 163.413C98.3553 157.344 97.192 152.438 93.7024 148.886C92.1515 147.273 90.2128 145.852 88.3388 144.561C86.2708 143.076 84.1382 141.591 82.4581 139.654C78.5807 135.199 77.6114 129.582 76.836 123.642C76.7067 122.545 76.5774 121.446 76.4482 120.285C75.8019 114.668 75.4142 108.728 74.9618 102.982C74.7034 99.3656 74.4449 95.5562 74.1218 91.9406C73.8633 89.0998 73.5402 85.6133 71.343 83.2244C66.6901 78.0592 57.9016 80.7709 54.3473 82.1914C53.6364 82.4496 52.9256 82.7724 52.2794 83.0952C51.5684 83.4181 50.9223 83.7409 50.2114 84.0637C46.1402 86.0006 41.9397 88.0021 37.9331 88.1313C36.4468 88.1959 35.0897 88.0667 33.7326 87.6793C32.0525 87.2274 30.3723 86.4526 28.5628 85.2259C25.9779 83.4826 23.5223 81.2874 20.9374 79.0277C17.5124 75.9931 13.9581 72.8294 10.0808 70.7634C8.14211 69.7304 6.20343 69.0201 4.26475 68.5682C2.90768 68.3099 1.5506 68.1808 0.128906 68.1162V67.5352C1.5506 67.5997 3.03692 67.7289 4.394 67.9871C6.3973 68.4391 8.33598 69.1493 10.3392 70.2469C14.2167 72.3129 17.8355 75.5412 21.3251 78.5757C23.91 80.8354 26.3657 83.0307 28.886 84.7739C30.6307 85.9361 32.2463 86.7109 33.8619 87.1628C35.1544 87.4856 36.4468 87.6148 37.8685 87.5502C41.7458 87.3566 45.8817 85.4196 49.8883 83.4826C50.5992 83.1598 51.2453 82.8369 51.9563 82.5141C52.6671 82.1914 53.3779 81.8686 54.0888 81.6103C57.7723 80.1899 66.8194 77.4136 71.7308 82.7724C74.0572 85.2904 74.3803 88.9061 74.6387 91.8114C74.9618 95.4916 75.2204 99.2364 75.4788 102.916C75.8666 108.599 76.3189 114.538 76.9651 120.155C77.0944 121.253 77.2237 122.415 77.3529 123.513C78.0638 129.323 79.0331 134.876 82.7812 139.202C84.3968 141.074 86.5293 142.56 88.5326 143.98C90.4067 145.336 92.3454 146.691 93.961 148.37C97.5152 152.05 98.8076 157.087 97.709 163.413C97.4506 164.834 96.9335 166.19 96.4812 167.481C96.0288 168.644 95.5765 169.87 95.318 171.161C95.1242 172.259 95.0595 173.357 95.2533 174.325C95.3826 175.165 95.6411 175.874 96.0288 176.521C96.6751 177.489 97.5798 178.263 98.4845 178.974C98.6784 179.103 98.8722 179.297 99.0661 179.426C101.198 181.169 102.944 183.299 104.301 185.818H103.784V185.947Z" fill="#92B6FF"/>
<path d="M70.1157 170.516C70.1803 170.645 70.3095 170.838 70.3741 170.968C72.119 174.002 72.6359 178.005 71.8604 182.524C71.7313 183.364 71.5373 184.203 71.2789 185.043C71.2142 185.365 71.085 185.624 71.0203 185.882H70.4388C70.5681 185.559 70.6972 185.236 70.7619 184.849C71.0203 184.01 71.2142 183.171 71.3435 182.395C72.119 178.005 71.6666 174.131 69.9218 171.161C69.8571 171.032 69.7279 170.838 69.6633 170.709C69.3402 170.129 68.9525 169.547 68.6939 168.773C68.5647 168.256 68.4355 167.674 68.4355 167.093C68.4355 166.384 68.5001 165.544 68.6294 164.769C68.7586 163.995 69.0171 163.22 69.2109 162.509C69.534 161.412 69.7926 160.379 69.9218 159.346C70.3095 155.15 69.2109 151.792 66.8199 149.403C65.5274 148.111 63.9765 147.143 62.4902 146.175C61.2623 145.4 60.0345 144.561 58.9359 143.657C55.8341 140.945 54.2831 137.588 53.1199 134.424C52.8614 133.713 52.6029 133.068 52.409 132.358C51.3105 128.871 50.5996 125.062 49.8888 121.318C49.4364 118.864 48.9194 116.346 48.3379 113.957C47.8209 111.891 47.2393 109.889 45.6883 108.533C42.134 105.37 36.2534 106.661 32.1176 107.888C31.536 108.081 30.9544 108.211 30.4374 108.404C26.6246 109.567 22.2949 110.664 19.0637 109.437C18.2237 109.115 17.3836 108.663 16.5435 107.952C15.6388 107.243 14.8633 106.403 14.0232 105.499L13.5708 105.047C9.82277 101.108 4.84682 97.945 0.323242 96.46V95.8789C5.04069 97.3638 10.1459 100.592 14.0232 104.66L14.4756 105.112C15.3157 106.016 16.0912 106.791 16.9313 107.5C17.7714 108.146 18.5468 108.598 19.3223 108.921C22.4242 110.083 26.6246 108.985 30.3081 107.888C30.8898 107.695 31.4713 107.565 31.9883 107.372C36.2534 106.08 42.328 104.789 46.076 108.146C47.7562 109.631 48.3379 111.697 48.8548 113.893C49.4364 116.281 49.9534 118.864 50.4058 121.318C51.1166 124.998 51.8275 128.871 52.926 132.293C53.1199 132.939 53.3784 133.649 53.6369 134.295C54.8001 137.458 56.2865 140.686 59.3237 143.334C60.3576 144.238 61.5854 145.077 62.8133 145.852C64.3642 146.821 65.9151 147.854 67.2076 149.21C69.7926 151.792 70.8911 155.279 70.5034 159.604C70.3741 160.767 70.1157 161.864 69.7926 162.897C69.5987 163.607 69.4048 164.382 69.2109 165.092C69.0816 165.867 69.0171 166.642 69.0171 167.288C69.0171 167.869 69.1463 168.385 69.2756 168.837C69.4694 169.353 69.7926 169.934 70.1157 170.516Z" fill="#92B6FF"/>
<path d="M42.6505 159.863C41.5518 163.672 38.773 166.836 36.5113 169.096C32.1169 173.551 28.1103 176.133 23.9099 177.296C19.3863 178.522 13.1825 177.941 9.62826 173.809C9.30514 173.486 9.04666 173.099 8.72354 172.711C8.14194 171.936 7.56033 171.161 6.72025 170.58C4.84619 169.224 2.13204 169.676 0.193359 170.709V170.064C2.26128 169.031 5.04006 168.708 7.10798 170.128C7.94808 170.709 8.5943 171.549 9.24052 172.388C9.49901 172.776 9.82212 173.099 10.0807 173.486C13.5056 177.425 19.3863 178.005 23.7806 176.779C27.9165 175.617 31.8585 173.099 36.1235 168.708C38.3207 166.448 41.0349 163.414 42.0688 159.669C43.1674 155.925 42.2627 152.05 39.807 149.791C38.2561 148.37 36.1235 147.66 34.0556 146.95C32.0523 146.24 29.9198 145.529 28.3042 144.173C26.6886 142.818 25.6546 140.881 24.6207 139.073C23.3929 136.814 22.165 134.618 19.9679 133.456C17.3829 132.035 14.2164 132.552 11.1792 133.004C10.7268 133.069 10.2745 133.133 9.82213 133.198C7.62496 133.521 2.45515 133.843 0.193363 130.55V129.389C0.257985 129.582 0.387231 129.776 0.516476 129.97C2.45515 133.262 7.62496 132.939 9.75751 132.617C10.2098 132.552 10.6622 132.487 11.1146 132.423C14.2811 131.971 17.5122 131.454 20.291 132.939C22.6174 134.166 23.9099 136.491 25.1377 138.75C26.107 140.558 27.141 142.366 28.692 143.721C30.2429 145.013 32.3108 145.723 34.2495 146.433C36.382 147.144 38.5146 147.918 40.1948 149.404C42.8443 151.793 43.8137 155.86 42.6505 159.863Z" fill="#92B6FF"/>
</g>
</g>
<defs>
<clipPath id="clip0_421_1349">
<rect width="256.551" height="186.401" fill="white"/>
</clipPath>
</defs>
</svg>
